<svg width="689" height="346" viewBox="0 0 689 346" fill="none" xmlns="http://www.w3.org/2000/svg">
<path d="M344.5 346C534.762 346 689 336.9 689 325.676C689 314.451 534.762 305.352 344.5 305.352C154.238 305.352 0 314.451 0 325.676C0 336.9 154.238 346 344.5 346Z" fill="#B6C3CC"/>
<path d="M230.299 61.9816V70.5032H195.639V61.9816C195.632 61.858 195.632 61.7341 195.639 61.6104C195.731 59.1725 196.764 56.8652 198.52 55.1736C200.276 53.482 202.619 52.5378 205.057 52.5396H220.867C222.249 52.5439 223.614 52.852 224.864 53.442C226.115 54.032 227.221 54.8896 228.104 55.9541C229.526 57.6394 230.304 59.7755 230.299 61.9816Z" fill="#697172"/>
<path d="M223.566 69.3601H202.357V302.471H223.566V69.3601Z" fill="#697172"/>
<path d="M245.546 302.367H180.377V319.915H245.546V302.367Z" fill="#697172"/>
<path d="M245.561 302.367V319.915H212.784C212.302 316.972 210.79 314.296 208.519 312.365C206.248 310.434 203.365 309.374 200.385 309.375H180.377V302.367H245.561Z" fill="#606060"/>
<path d="M230.299 61.9817V70.5033H223.566V302.486H212.947C212.857 298.833 211.719 295.282 209.669 292.257C207.911 289.682 205.568 287.56 202.832 286.067L202.372 285.814V266.114H212.977V200.405C212.985 196.797 211.999 193.255 210.129 190.17C208.258 187.085 205.574 184.575 202.372 182.917V163.439H212.977V80.5689C212.982 77.0236 211.984 73.5494 210.099 70.5479C209.87 70.1276 209.602 69.7299 209.298 69.3602C208.73 68.5474 208.084 67.7917 207.37 67.1036C204.238 63.9487 200.083 62.0166 195.654 61.6551C195.746 59.2171 196.779 56.9098 198.535 55.2182C200.291 53.5266 202.634 52.5825 205.072 52.5842H220.882C222.264 52.5886 223.629 52.8967 224.879 53.4867C226.13 54.0767 227.236 54.9342 228.119 55.9988C229.526 57.6745 230.298 59.7929 230.299 61.9817Z" fill="#606060"/>
<path d="M213.199 53.7721C228.033 53.7721 240.058 41.7348 240.058 26.886C240.058 12.0373 228.033 0 213.199 0C198.365 0 186.34 12.0373 186.34 26.886C186.34 41.7348 198.365 53.7721 213.199 53.7721Z" fill="#8570FF"/>
<path d="M233.088 38.0354C231.339 41.1435 228.891 43.8018 225.939 45.7999" stroke="#FFA25F" stroke-width="1.48407" stroke-miterlimit="10" stroke-linecap="round"/>
<path d="M219.072 48.9321C217.44 49.3686 215.763 49.6176 214.074 49.6742" stroke="#FFA25F" stroke-width="1.48407" stroke-miterlimit="10" stroke-linecap="round"/>
<path d="M194.571 13.7612C195.215 12.8546 195.918 11.9919 196.677 11.179" stroke="#FFA25F" stroke-width="1.48407" stroke-miterlimit="10" stroke-linecap="round"/>
<path d="M200.963 7.64563C204.46 5.42379 208.494 4.19489 212.635 4.09029C216.775 3.9857 220.866 5.00934 224.471 7.0518" stroke="#FFA25F" stroke-width="1.48407" stroke-miterlimit="10" stroke-linecap="round"/>
<path opacity="0.4" d="M224.996 40.8145C232.677 34.3009 233.629 22.7877 227.122 15.099C220.615 7.41036 209.113 6.45775 201.432 12.9713C193.751 19.4849 192.799 30.998 199.306 38.6867C205.813 46.3754 217.315 47.328 224.996 40.8145Z" fill="#FFA25F"/>
<path d="M213.199 38.8667C219.809 38.8667 225.168 33.5027 225.168 26.886C225.168 20.2692 219.809 14.9053 213.199 14.9053C206.589 14.9053 201.23 20.2692 201.23 26.886C201.23 33.5027 206.589 38.8667 213.199 38.8667Z" fill="#FFD231"/>
<path d="M206.347 199.07V215.578" stroke="#919A9B" stroke-width="1.48407" stroke-linecap="round" stroke-linejoin="round"/>
<path d="M206.347 293.297V299.666" stroke="#919A9B" stroke-width="1.48407" stroke-linecap="round" stroke-linejoin="round"/>
<path d="M493.361 61.9816V70.5032H458.7V61.9816C458.693 61.858 458.693 61.7341 458.7 61.6104C458.793 59.1725 459.825 56.8652 461.582 55.1736C463.338 53.482 465.681 52.5378 468.118 52.5396H483.913C486.411 52.5474 488.805 53.5452 490.569 55.3146C492.334 57.0841 493.327 59.4812 493.331 61.9816H493.361Z" fill="#697172"/>
<path d="M486.628 69.3601H465.419V302.471H486.628V69.3601Z" fill="#697172"/>
<path d="M508.608 302.367H443.439V319.915H508.608V302.367Z" fill="#697172"/>
<path d="M508.608 302.367V319.915H475.845C475.363 316.969 473.849 314.291 471.575 312.36C469.301 310.429 466.414 309.371 463.432 309.375H443.439V302.367H508.608Z" fill="#606060"/>
<path d="M493.361 61.9817V70.5033H486.628V302.486H476.009C475.918 298.833 474.78 295.282 472.731 292.257C470.969 289.685 468.627 287.564 465.894 286.067L465.419 285.814V266.114H476.023V200.405C476.032 196.469 474.859 192.621 472.657 189.36C470.827 186.635 468.337 184.418 465.419 182.917V163.439H476.023V80.5689C476.034 77.025 475.041 73.5506 473.161 70.5479C472.922 70.134 472.654 69.7371 472.36 69.3602C471.787 68.5509 471.142 67.7956 470.432 67.1036C467.299 63.9487 463.144 62.0166 458.715 61.6551C458.807 59.2171 459.84 56.9098 461.596 55.2182C463.353 53.5266 465.696 52.5825 468.133 52.5842H483.914C486.411 52.5921 488.805 53.5899 490.57 55.3593C492.334 57.1288 493.327 59.5259 493.331 62.0263L493.361 61.9817Z" fill="#606060"/>
<path d="M476.261 53.7721C491.095 53.7721 503.12 41.7348 503.12 26.886C503.12 12.0373 491.095 0 476.261 0C461.427 0 449.401 12.0373 449.401 26.886C449.401 41.7348 461.427 53.7721 476.261 53.7721Z" fill="#8570FF"/>
<path d="M496.149 38.0354C494.399 41.1474 491.946 43.8064 488.986 45.7999" stroke="#FFA25F" stroke-width="1.48407" stroke-miterlimit="10" stroke-linecap="round"/>
<path d="M482.134 48.9321C480.496 49.3688 478.815 49.6178 477.121 49.6742" stroke="#FFA25F" stroke-width="1.48407" stroke-miterlimit="10" stroke-linecap="round"/>
<path d="M457.633 13.7612C458.277 12.8546 458.98 11.9919 459.739 11.179" stroke="#FFA25F" stroke-width="1.48407" stroke-miterlimit="10" stroke-linecap="round"/>
<path d="M464.025 7.64563C467.522 5.42379 471.556 4.19489 475.697 4.09029C479.837 3.9857 483.928 5.00934 487.532 7.0518" stroke="#FFA25F" stroke-width="1.48407" stroke-miterlimit="10" stroke-linecap="round"/>
<path opacity="0.4" d="M493.921 31.4338C496.428 21.6744 490.557 11.7286 480.807 9.21923C471.057 6.70982 461.121 12.5871 458.614 22.3464C456.107 32.1058 461.979 42.0516 471.729 44.561C481.478 47.0704 491.414 41.1932 493.921 31.4338Z" fill="#FFA25F"/>
<path d="M476.261 38.8667C482.871 38.8667 488.23 33.5027 488.23 26.886C488.23 20.2692 482.871 14.9053 476.261 14.9053C469.651 14.9053 464.292 20.2692 464.292 26.886C464.292 33.5027 469.651 38.8667 476.261 38.8667Z" fill="#FFD231"/>
<path d="M469.409 199.07V215.578" stroke="#919A9B" stroke-width="1.48407" stroke-linecap="round" stroke-linejoin="round"/>
<path d="M469.409 293.297V299.666" stroke="#919A9B" stroke-width="1.48407" stroke-linecap="round" stroke-linejoin="round"/>
<path d="M521.674 223.833H167.326V275.333H521.674V223.833Z" fill="#FEFCF3"/>
<path d="M206.406 223.818L167.326 263.041V241.974L185.405 223.818H206.406Z" fill="#8570FF"/>
<path d="M247.548 223.818L196.202 275.333H175.172L226.532 223.818H247.548Z" fill="#8570FF"/>
<path d="M288.66 223.818L237.314 275.333H216.313L267.659 223.818H288.66Z" fill="#8570FF"/>
<path d="M329.802 223.818L278.456 275.333H257.426L308.786 223.818H329.802Z" fill="#8570FF"/>
<path d="M370.944 223.818L319.583 275.333H298.568L349.913 223.818H370.944Z" fill="#8570FF"/>
<path d="M412.056 223.818L360.711 275.333H339.68L391.04 223.818H412.056Z" fill="#8570FF"/>
<path d="M453.198 223.818L401.838 275.333H380.822L432.167 223.818H453.198Z" fill="#8570FF"/>
<path d="M494.31 223.818L442.965 275.333H421.964L473.309 223.818H494.31Z" fill="#8570FF"/>
<path d="M521.674 223.818V237.669L484.092 275.333H463.076L514.436 223.818H521.674Z" fill="#8570FF"/>
<path d="M521.674 257.815V275.333H504.218L521.674 257.815Z" fill="#8570FF"/>
<g style="mix-blend-mode:multiply" opacity="0.3">
<path d="M521.674 223.803V275.303H418.419C407.677 263.757 394.671 254.553 380.215 248.267C365.758 241.98 350.162 238.746 334.4 238.767H167.326V223.803H521.674Z" fill="#606060"/>
</g>
<path d="M521.674 69.3452H167.326V172.332H521.674V69.3452Z" fill="#FEFCF3"/>
<path d="M229.335 69.3601L167.326 131.55V98.4285L196.321 69.3601H229.335Z" fill="#8570FF"/>
<path d="M295.394 69.3601L192.717 172.347H167.326V164.671L262.35 69.3601H295.394Z" fill="#8570FF"/>
<path d="M361.422 69.3601L258.746 172.347H225.731L328.408 69.3601H361.422Z" fill="#8570FF"/>
<path d="M427.481 69.3601L324.804 172.347H291.775L394.466 69.3601H427.481Z" fill="#8570FF"/>
<path d="M493.524 69.3601L390.848 172.347H357.818L460.495 69.3601H493.524Z" fill="#8570FF"/>
<path d="M521.674 74.2446V107.351L456.891 172.347H423.877L521.674 74.2446Z" fill="#8570FF"/>
<path d="M521.674 143.931V172.347H493.346L521.674 143.931Z" fill="#8570FF"/>
<g style="mix-blend-mode:screen" opacity="0.3">
<path d="M356.202 155.66H190.7C187.959 155.66 185.33 154.575 183.385 152.642C181.44 150.709 180.338 148.085 180.318 145.342C180.318 142.586 181.412 139.942 183.359 137.993C185.306 136.044 187.947 134.95 190.7 134.95H356.202C357.563 134.946 358.911 135.212 360.168 135.734C361.426 136.256 362.567 137.022 363.526 137.989C364.485 138.956 365.242 140.104 365.754 141.366C366.267 142.628 366.523 143.979 366.509 145.342C366.49 148.072 365.398 150.685 363.469 152.616C361.54 154.547 358.93 155.64 356.202 155.66Z" fill="#FEFCF3"/>
</g>
<g style="mix-blend-mode:screen" opacity="0.3">
<path d="M315.179 268.148H190.7C187.959 268.148 185.33 267.063 183.385 265.13C181.44 263.197 180.338 260.573 180.318 257.83C180.318 255.073 181.412 252.43 183.359 250.481C185.306 248.532 187.947 247.438 190.7 247.438H315.179C317.932 247.438 320.573 248.532 322.52 250.481C324.467 252.43 325.56 255.073 325.56 257.83C325.541 260.573 324.438 263.197 322.494 265.13C320.549 267.063 317.919 268.148 315.179 268.148Z" fill="#FEFCF3"/>
</g>
<g style="mix-blend-mode:multiply" opacity="0.3">
<path d="M167.326 69.4048V100.433H334.4C351.972 100.407 369.313 104.436 385.078 112.206L324.997 172.347H416.135L439.42 149.039C444.566 156.285 448.852 164.107 452.19 172.347H521.674V69.4048H167.326Z" fill="#606060"/>
</g>
<g style="mix-blend-mode:multiply" opacity="0.3">
<path d="M447.043 125.671C446.695 127.498 445.8 129.175 444.477 130.481L402.668 172.347H344.5V69.4048H396.632L444.477 117.313C445.553 118.391 446.349 119.717 446.796 121.173C447.243 122.63 447.328 124.174 447.043 125.671Z" fill="#606060"/>
</g>
<path d="M436.795 120.935C436.796 121.853 436.616 122.763 436.265 123.611C435.913 124.46 435.398 125.23 434.748 125.879L343.565 217.166C342.256 218.473 340.483 219.206 338.634 219.206C336.785 219.206 335.012 218.473 333.703 217.166L242.52 125.819C241.871 125.174 241.356 124.406 241.004 123.56C240.652 122.714 240.471 121.807 240.471 120.89C240.471 119.974 240.652 119.067 241.004 118.221C241.356 117.375 241.871 116.607 242.52 115.962L312.45 45.9628L333.703 24.6737C335.012 23.3673 336.785 22.6338 338.634 22.6338C340.483 22.6338 342.256 23.3673 343.565 24.6737L434.748 115.962C435.403 116.612 435.921 117.387 436.273 118.241C436.624 119.096 436.802 120.011 436.795 120.935Z" fill="#FFA25F"/>
<path d="M436.795 120.935C436.796 121.854 436.616 122.763 436.265 123.612C435.914 124.46 435.398 125.231 434.748 125.879L343.566 217.167C342.256 218.473 340.483 219.207 338.634 219.207C336.786 219.207 335.012 218.473 333.703 217.167L316.321 199.752L354.229 161.791C359.082 156.937 362.931 151.173 365.558 144.829C368.184 138.485 369.536 131.685 369.536 124.817C369.536 117.95 368.184 111.15 365.558 104.806C362.931 98.4618 359.082 92.6979 354.229 87.8435L312.45 46.0224L333.703 24.7333C335.012 23.4269 336.786 22.6934 338.634 22.6934C340.483 22.6934 342.256 23.4269 343.566 24.7333L434.748 116.021C435.396 116.665 435.91 117.43 436.261 118.274C436.613 119.117 436.794 120.021 436.795 120.935Z" fill="#FF6B00"/>
<path d="M320.018 132.32H314.402V139.556H303.98V132.32H284V125.354L300.956 101.756H312.026L296.636 123.842H304.304V117.416H314.402V123.842H320.018V132.32Z" fill="#414A51"/>
<path d="M338.875 140.312C335.635 140.312 332.755 139.538 330.235 137.99C327.715 136.442 325.735 134.192 324.295 131.24C322.891 128.252 322.189 124.724 322.189 120.656C322.189 116.588 322.891 113.078 324.295 110.126C325.735 107.138 327.715 104.87 330.235 103.322C332.755 101.774 335.635 101 338.875 101C342.079 101 344.941 101.774 347.461 103.322C349.981 104.87 351.943 107.138 353.347 110.126C354.787 113.078 355.507 116.588 355.507 120.656C355.507 124.724 354.787 128.252 353.347 131.24C351.943 134.192 349.981 136.442 347.461 137.99C344.941 139.538 342.079 140.312 338.875 140.312ZM338.875 131.564C340.675 131.564 342.097 130.7 343.141 128.972C344.221 127.208 344.761 124.436 344.761 120.656C344.761 116.876 344.221 114.122 343.141 112.394C342.097 110.63 340.675 109.748 338.875 109.748C337.039 109.748 335.581 110.63 334.501 112.394C333.457 114.122 332.935 116.876 332.935 120.656C332.935 124.436 333.457 127.208 334.501 128.972C335.581 130.7 337.039 131.564 338.875 131.564Z" fill="#414A51"/>
<path d="M394.795 132.32H389.179V139.556H378.757V132.32H358.777V125.354L375.733 101.756H386.803L371.413 123.842H379.081V117.416H389.179V123.842H394.795V132.32Z" fill="#414A51"/>
<path d="M260.659 123.889C260.137 123.889 259.626 123.734 259.192 123.444C258.758 123.154 258.42 122.741 258.22 122.258C258.02 121.775 257.968 121.244 258.07 120.731C258.172 120.219 258.423 119.748 258.792 119.378C259.161 119.009 259.632 118.757 260.144 118.655C260.656 118.553 261.187 118.605 261.669 118.805C262.152 119.005 262.564 119.344 262.854 119.779C263.144 120.213 263.299 120.724 263.299 121.247C263.299 121.948 263.021 122.62 262.526 123.115C262.031 123.611 261.359 123.889 260.659 123.889Z" fill="#494947"/>
<path d="M261.193 123.889C260.671 123.889 260.16 123.734 259.726 123.444C259.292 123.154 258.954 122.741 258.754 122.258C258.554 121.775 258.502 121.244 258.604 120.731C258.705 120.219 258.957 119.748 259.326 119.378C259.695 119.009 260.166 118.757 260.678 118.655C261.19 118.553 261.721 118.605 262.203 118.805C262.685 119.005 263.098 119.344 263.388 119.779C263.678 120.213 263.833 120.724 263.833 121.247C263.833 121.948 263.555 122.62 263.06 123.115C262.564 123.611 261.893 123.889 261.193 123.889Z" fill="#606060"/>
<path d="M416.669 118.604C417.19 118.607 417.699 118.765 418.131 119.057C418.564 119.349 418.9 119.763 419.097 120.246C419.295 120.729 419.345 121.26 419.241 121.771C419.138 122.283 418.885 122.753 418.515 123.121C418.146 123.489 417.675 123.739 417.164 123.84C416.652 123.94 416.122 123.887 415.64 123.687C415.159 123.486 414.747 123.148 414.458 122.713C414.169 122.279 414.014 121.769 414.014 121.247C414.014 120.899 414.083 120.554 414.216 120.232C414.35 119.911 414.546 119.619 414.792 119.373C415.039 119.127 415.332 118.933 415.654 118.801C415.976 118.669 416.321 118.602 416.669 118.604Z" fill="#494947"/>
<path d="M416.12 123.889C417.578 123.889 418.76 122.706 418.76 121.247C418.76 119.787 417.578 118.604 416.12 118.604C414.662 118.604 413.48 119.787 413.48 121.247C413.48 122.706 414.662 123.889 416.12 123.889Z" fill="#606060"/>
<path d="M338.642 210.233C337.667 210.235 336.702 210.045 335.801 209.673C334.9 209.301 334.081 208.755 333.391 208.066L251.612 126.19C250.222 124.798 249.441 122.911 249.441 120.942C249.441 118.974 250.222 117.086 251.612 115.694L333.391 33.7744C334.804 32.4248 336.681 31.6719 338.634 31.6719C340.587 31.6719 342.464 32.4248 343.877 33.7744L425.671 115.635C427.061 117.027 427.842 118.915 427.842 120.883C427.842 122.851 427.061 124.739 425.671 126.131L343.877 208.066C342.487 209.454 340.605 210.233 338.642 210.233ZM338.642 34.0119C337.975 34.0112 337.315 34.142 336.699 34.3967C336.084 34.6515 335.524 35.0252 335.052 35.4965L253.273 117.357C252.325 118.309 251.792 119.598 251.792 120.942C251.792 122.287 252.325 123.576 253.273 124.528L335.052 206.388C336.014 207.316 337.298 207.835 338.634 207.835C339.97 207.835 341.254 207.316 342.216 206.388L423.995 124.528C424.468 124.06 424.843 123.503 425.098 122.889C425.353 122.274 425.482 121.615 425.478 120.95C425.481 120.283 425.351 119.622 425.096 119.005C424.842 118.388 424.467 117.828 423.995 117.357L342.216 35.4965C341.747 35.0256 341.19 34.6521 340.577 34.3973C339.963 34.1425 339.306 34.0116 338.642 34.0119Z" fill="white"/>
<path d="M629.912 302.457H545.493L551.826 277.976L557.165 257.206L561.629 239.97L566.969 219.216L579.961 168.888H595.445L608.422 219.216L613.776 239.97L618.225 257.206L623.579 277.976L629.912 302.457Z" fill="#8570FF"/>
<path d="M613.776 239.985H561.629L566.968 219.215H608.422L613.776 239.985Z" fill="#FEFCF3"/>
<path d="M623.565 277.976H551.826L557.165 257.221H618.225L623.565 277.976Z" fill="#FEFCF3"/>
<path d="M648.125 302.367H527.28V319.915H648.125V302.367Z" fill="#5F44FF"/>
<g style="mix-blend-mode:multiply" opacity="0.3">
<path d="M648.125 302.367V319.915H593.25C592.77 316.971 591.26 314.293 588.988 312.361C586.716 310.43 583.831 309.371 580.851 309.375H527.28V302.367H648.125Z" fill="#606060"/>
</g>
<g style="mix-blend-mode:multiply" opacity="0.3">
<path d="M590.165 302.486C608.229 220.596 579.961 168.873 579.961 168.873H595.445L608.422 219.201L613.776 239.985L618.225 257.221L623.579 278.005L629.912 302.486H590.165Z" fill="#606060"/>
</g>
<g style="mix-blend-mode:screen" opacity="0.3">
<path d="M581.993 248.031C577.781 269.736 571.106 286.631 567.072 285.918C563.038 285.206 563.172 266.9 567.369 245.181C571.566 223.461 578.255 206.581 582.289 207.294C586.323 208.007 586.249 226.312 581.993 248.031Z" fill="#FEFCF3"/>
</g>
<path d="M143.507 302.457H59.0875L65.4205 277.976L70.7597 257.206L75.2239 239.97L80.5632 219.216L93.5553 168.888H109.039L122.016 219.216L127.371 239.97L131.82 257.206L137.174 277.976L143.507 302.457Z" fill="#8570FF"/>
<path d="M127.371 239.985H75.2239L80.5631 219.215H122.031L127.371 239.985Z" fill="#FEFCF3"/>
<path d="M137.174 277.976H65.4205L70.7598 257.221H131.82L137.174 277.976Z" fill="#FEFCF3"/>
<path d="M161.72 302.367H40.8749V319.915H161.72V302.367Z" fill="#5F44FF"/>
<g style="mix-blend-mode:multiply" opacity="0.3">
<path d="M161.72 302.367V319.915H106.844C106.362 316.969 104.848 314.291 102.574 312.36C100.299 310.429 97.4129 309.371 94.4305 309.375H40.8749V302.367H161.72Z" fill="#606060"/>
</g>
<g style="mix-blend-mode:multiply" opacity="0.3">
<path d="M103.759 302.486C121.824 220.596 93.5553 168.873 93.5553 168.873H109.039L122.016 219.201L127.371 239.985L131.82 257.221L137.174 278.005L143.507 302.486H103.759Z" fill="#606060"/>
</g>
<g style="mix-blend-mode:screen" opacity="0.3">
<path d="M95.5872 248.031C91.3751 269.736 84.7011 286.631 80.667 285.918C76.6329 285.206 76.7664 266.9 80.9784 245.181C85.1905 223.461 91.8646 206.581 95.8987 207.294C99.9328 208.007 99.7845 226.312 95.5872 248.031Z" fill="#FEFCF3"/>
</g>
</svg>
