<svg width="185" height="135" viewBox="0 0 185 135" fill="none" xmlns="http://www.w3.org/2000/svg">
<path d="M147.945 85.4025C150.394 91.1385 152.8 96.6927 155.443 102.131C158.065 107.526 162.328 111.73 166.165 116.226C167.889 118.246 167.977 118.842 165.849 120.549C164.379 121.728 162.659 122.591 161.073 123.631C160.695 123.879 160.074 124.451 160.134 124.559C160.415 125.07 160.809 125.654 161.313 125.886C167.59 128.781 173.859 131.7 180.218 134.406C181.62 135.002 183.366 134.787 184.954 134.946C184.723 133.891 184.531 132.825 184.253 131.782C182.242 124.218 180.752 116.566 180.391 108.722C180.374 108.352 180.358 107.976 180.284 107.614C180.132 106.875 179.941 106.143 179.767 105.408C179.011 105.905 178.077 106.255 177.529 106.924C175.18 109.792 172.984 112.787 170.613 115.636C170.349 115.953 168.981 115.909 168.701 115.563C165.142 111.166 161.195 106.976 158.34 102.142C155.294 96.9855 153.264 91.2174 150.863 85.6842C148.015 79.117 145.367 72.4589 142.398 65.9481C140.329 61.4105 136.196 58.603 132.628 55.3695C131.097 53.9818 129.473 52.6409 127.713 51.5759C124.767 49.7948 121.795 47.9671 118.626 46.6672C111.836 43.8812 104.748 41.6082 97.3711 42.042C91.3872 42.3944 85.1604 43.0513 79.8127 46.1302C72.9631 50.073 65.8311 53.2731 58.4837 56.1024C56.2009 56.9818 54.2774 59.0612 51.9699 59.5569C48.5272 60.296 44.8928 60.2193 41.3358 60.3049C36.6849 60.4164 32.6589 58.2538 28.6213 56.3532C21.9799 53.2273 16.8068 48.2313 12.4441 42.4671C9.63088 38.7495 8.07476 34.3639 6.9581 29.768C5.05391 21.93 3.62625 14.0572 3.541 5.96911C3.53704 5.60066 3.34203 5.20147 3.43356 4.87151C3.61554 4.21563 3.93528 3.59827 4.19818 2.96461C4.50656 3.51467 4.79227 4.07964 5.1303 4.61076C5.39824 5.03165 5.7302 5.4116 6.03377 5.80976C6.49155 5.41335 7.06405 5.08587 7.36185 4.5928C7.52613 4.32054 7.35242 3.67261 7.11315 3.3643C6.66239 2.78415 6.10845 2.24522 5.49814 1.83856C4.60931 1.247 3.08179 0.143276 2.79428 0.390592C1.84511 1.20722 0.717475 2.54996 0.747741 3.65915C0.963725 11.5488 1.5498 19.3504 3.71355 27.0762C5.10484 32.0448 6.16996 36.9744 8.9702 41.4077C13.3774 48.385 18.9521 54.1045 26.3675 57.7584C30.0805 59.5875 33.9438 61.3779 37.9435 62.2958C44.6418 63.834 51.2125 63.5318 57.557 59.8641C62.2619 57.1443 67.5251 55.4004 72.5372 53.2164C73.1073 52.9678 73.7112 52.7574 74.218 52.4097C80.2286 48.2819 86.7881 45.8095 94.0681 44.9217C97.6908 44.4804 101.136 44.4327 104.651 45.3277C106.683 45.8454 108.86 45.88 110.826 46.5567C117.845 48.9738 124.973 51.201 130.426 56.7239C132.823 59.1516 136.079 60.9468 137.845 63.7316C140.795 68.3809 142.903 73.5753 145.281 78.5801C146.299 80.7244 147.105 82.9699 147.945 85.4025ZM178.508 117.049C179.301 121.544 179.535 126.174 181.776 130.319C181.965 130.669 181.783 131.34 181.564 131.75C181.444 131.975 180.798 132.157 180.539 132.036C175.745 129.796 170.961 127.53 166.224 125.173C165.948 125.035 165.838 123.696 166.055 123.558C170.741 120.587 173.767 116.051 177.167 111.869C177.33 111.669 177.569 111.53 177.772 111.362C177.882 111.599 178.072 111.831 178.088 112.074C178.193 113.633 178.259 115.194 178.508 117.049Z" fill="black"/>
</svg>
