<svg width="239" height="175" viewBox="0 0 239 175" fill="none" xmlns="http://www.w3.org/2000/svg">
<path d="M48.4245 110.174C45.266 117.573 42.1613 124.739 38.7519 131.754C35.3695 138.714 29.8703 144.137 24.9199 149.938C22.6961 152.544 22.5833 153.312 25.3279 155.514C27.2248 157.035 29.4433 158.149 31.4889 159.491C31.9772 159.811 32.7777 160.548 32.7012 160.687C32.3388 161.347 31.8302 162.101 31.1797 162.4C23.0816 166.134 14.9949 169.9 6.79125 173.39C4.98288 174.159 2.72978 173.883 0.68137 174.087C0.980071 172.726 1.22782 171.351 1.58547 170.006C4.18077 160.248 6.10184 150.377 6.56848 140.257C6.59035 139.78 6.61097 139.295 6.70671 138.828C6.90201 137.874 7.14804 136.93 7.3729 135.982C8.3488 136.623 9.5537 137.075 10.2602 137.937C13.2905 141.638 16.1237 145.501 19.1827 149.177C19.5225 149.586 21.2873 149.529 21.6485 149.083C26.2407 143.41 31.3317 138.005 35.0151 131.769C38.9442 125.116 41.5635 117.675 44.6602 110.537C48.3349 102.065 51.7506 93.4758 55.5815 85.0765C58.2507 79.2228 63.5817 75.6009 68.1847 71.4295C70.1601 69.6393 72.255 67.9094 74.5258 66.5356C78.3255 64.2379 82.1605 61.88 86.2487 60.2031C95.0082 56.6091 104.152 53.6768 113.668 54.2363C121.388 54.6909 129.421 55.5383 136.319 59.5104C145.156 64.5968 154.356 68.725 163.835 72.375C166.78 73.5094 169.261 76.192 172.238 76.8315C176.679 77.785 181.368 77.6861 185.957 77.7965C191.957 77.9403 197.15 75.1504 202.359 72.6986C210.927 68.666 217.6 62.2209 223.228 54.7848C226.858 49.9888 228.865 44.3312 230.306 38.4022C232.762 28.2908 234.604 18.1345 234.714 7.70043C234.719 7.22511 234.971 6.71013 234.852 6.28447C234.618 5.43835 234.205 4.64193 233.866 3.82447C233.468 4.53408 233.1 5.26292 232.664 5.94809C232.318 6.49106 231.89 6.9812 231.498 7.49486C230.908 6.98347 230.169 6.561 229.785 5.92492C229.573 5.57368 229.797 4.73783 230.106 4.34009C230.687 3.59167 231.402 2.89641 232.189 2.3718C233.336 1.60865 235.306 0.184795 235.677 0.503846C236.902 1.55733 238.356 3.28955 238.317 4.72046C238.039 14.8985 237.283 24.9631 234.491 34.9297C232.696 41.3394 231.322 47.6989 227.71 53.4181C222.024 62.4192 214.833 69.7976 205.266 74.5113C200.476 76.871 195.493 79.1807 190.333 80.3648C181.692 82.3492 173.215 81.9593 165.03 77.2278C158.961 73.7192 152.171 71.4694 145.705 68.6519C144.97 68.3313 144.191 68.0599 143.537 67.6112C135.783 62.2862 127.321 59.0966 117.929 57.9513C113.256 57.382 108.811 57.3205 104.277 58.4751C101.655 59.1429 98.8467 59.1875 96.3112 60.0605C87.2556 63.1788 78.0608 66.0519 71.0253 73.1768C67.9328 76.3086 63.7334 78.6246 61.454 82.2171C57.6486 88.2149 54.9295 94.916 51.8625 101.372C50.5483 104.139 49.5085 107.035 48.4245 110.174ZM8.9971 150.999C7.97443 156.798 7.67283 162.771 4.78174 168.118C4.53716 168.57 4.77187 169.436 5.05441 169.964C5.21002 170.255 6.04298 170.489 6.37661 170.333C12.5622 167.443 18.7327 164.52 24.8446 161.479C25.2009 161.302 25.3424 159.574 25.0624 159.397C19.0168 155.563 15.114 149.712 10.7268 144.317C10.5166 144.058 10.2091 143.879 9.94645 143.663C9.80495 143.969 9.56024 144.267 9.53948 144.581C9.40391 146.592 9.31829 148.606 8.9971 150.999Z" fill="black"/>
</svg>
