<svg width="160" height="142" viewBox="0 0 160 142" fill="none" xmlns="http://www.w3.org/2000/svg">
<path d="M133.273 71.8276C131.261 68.3606 129.496 65.1131 127.51 62.001C125.815 59.3454 123.8 56.8865 122.083 54.2428C121.733 53.7027 122.079 52.7293 122.104 51.9559C122.93 52.227 124.148 52.2507 124.517 52.8091C127.279 56.9852 132.511 56.552 137.001 57.5147C141.476 58.4737 146.028 59.282 150.321 60.6202C151.147 60.8774 151.481 63.3519 151.098 64.681C149.322 70.8462 147.253 76.9752 145.182 83.0986C144.854 84.0667 143.975 84.9374 143.35 85.8536C142.763 85.2366 142.084 84.6799 141.605 83.9924C138.852 80.0481 136.146 76.0717 133.273 71.8276ZM145.041 68.6715C144.276 68.4858 143.512 68.2998 142.747 68.1136C142.993 68.8459 143.24 69.5783 143.485 70.3105C143.946 69.9161 144.407 69.5215 145.041 68.6715Z" fill="black"/>
<path d="M88.245 87.1095C91.9656 85.5789 95.3352 84.1474 98.7669 82.9165C99.9398 82.4965 101.039 83.0339 99.9259 84.3183C98.8377 85.5728 97.3945 86.6504 95.9431 87.5505C94.1912 88.6363 92.2914 90.0098 90.4108 90.277C85.8529 90.9233 81.2647 91.0573 76.6998 91.2427C76.0676 91.2686 75.4981 90.4182 74.8991 89.974C75.677 89.4524 76.438 88.5837 77.2348 88.4693C80.7902 87.9578 84.3559 87.6616 88.245 87.1095Z" fill="black"/>
<path d="M42.7185 90.9888C39.0016 90.1909 35.5183 89.4615 32.0554 88.6793C31.5532 88.5659 30.9166 88.3078 30.749 87.9271C30.3944 87.1189 30.308 86.1856 30.1116 85.3038C30.9139 85.313 31.7466 85.2247 32.513 85.3471C39.027 86.3866 45.5439 87.4205 52.0172 88.5838C52.8606 88.7355 53.4587 89.6098 54.1704 90.1494C53.2278 90.5509 52.2487 91.2753 51.3489 91.294C48.5362 91.3525 45.7527 91.1446 42.7185 90.9888Z" fill="black"/>
<path d="M0.976965 64.8534C1.44936 63.3209 3.06536 62.8202 3.90104 63.8041C6.70648 67.1087 9.47413 70.4497 12.0117 73.9379C12.5559 74.686 12.1315 76.1117 11.9611 77.2314C11.9467 77.3273 10.0148 77.8267 9.75745 77.5389C7.07265 74.5361 4.47188 71.4633 2.03167 68.2839C1.39974 67.46 1.41196 66.1939 0.976965 64.8534Z" fill="black"/>
<path d="M120.761 80.208C117.792 80.3995 117.064 79.6813 118.574 78.0376C120.961 75.4386 123.767 73.1421 126.637 71.0321C127.294 70.5489 128.932 71.3441 130.119 71.551C129.805 72.3524 129.728 73.4393 129.137 73.9063C126.449 76.0266 123.617 77.9725 120.761 80.208Z" fill="black"/>
</svg>
