<svg width="189" height="45" viewBox="0 0 189 45" fill="none" xmlns="http://www.w3.org/2000/svg">
<path d="M136.345 21.0582C141.005 21.959 145.377 22.7284 149.75 23.504C150.104 23.5666 150.461 23.6727 150.816 23.7588C150.747 24.1069 150.85 24.623 150.579 24.7769C148.15 26.1584 145.6 27.4239 143.195 28.8283C141.256 29.9616 139.437 31.213 137.652 32.486C137.409 32.6594 137.549 33.2849 137.759 33.6594C137.86 33.8384 138.599 34.0464 138.951 34.0196C139.695 33.9622 140.666 33.9599 141.035 33.5844C144.101 30.4609 148.853 32.09 153.504 33.1601C162.344 35.1941 170.957 38.1016 179.374 41.9252C180.609 42.486 181.901 42.9369 183.181 43.3781C189.04 45.3978 189.053 43.8548 188.814 40.2838C188.151 30.3689 185.499 20.323 181.306 10.1799C180.731 8.78901 182.018 7.29068 182.442 5.84162C182.668 5.06639 183.126 4.32731 183.055 3.50532C182.98 2.63848 181.886 2.07106 181.408 2.84274C180.403 4.46717 179.56 3.0351 178.629 2.34275C178.034 1.89985 177.457 1.44027 176.872 0.988276C176.567 1.47346 176.26 1.95837 175.957 2.44482C175.918 2.50763 175.841 2.58736 175.872 2.64489C179.185 8.64235 172.402 9.31074 169.94 12.2466C169.469 12.8082 168.183 12.8791 167.788 13.463C165.136 17.3759 160.381 15.6085 155.453 14.1804C149.676 12.5063 143.836 11.0881 138.025 9.88782C131.139 8.46566 124.243 7.26721 117.374 6.21333C112.275 5.43087 107.16 4.81882 102.142 4.50913C92.2039 3.89567 82.0895 2.92183 72.4938 3.26415C63.4527 3.58674 54.9763 5.39343 46.266 6.5765C33.8689 8.26044 23.399 12.4751 14.1234 17.9791C9.51148 20.7158 4.98812 23.7655 2.62627 28.312C2.09879 29.3274 0.885384 30.0014 0.170499 30.9413C-0.081733 31.2725 0.211372 31.9283 0.255833 32.4361C0.753173 32.4198 1.29762 32.4764 1.74111 32.3758C6.16748 31.3724 9.36955 29.0641 13.0486 27.2296C21.5249 23.0038 30.1941 18.9409 40.9675 17.4924C49.8888 16.2924 59.0641 15.8074 68.4207 15.6655C73.6536 15.5862 78.6732 14.8152 83.9701 15.0232C91.7937 15.3309 99.7671 16.174 107.699 16.9027C112.758 17.3675 117.844 17.9314 122.94 18.6491C127.296 19.2621 131.684 20.1574 136.345 21.0582ZM28.6373 17.6771C24.515 19.3828 20.3632 21.0546 16.2848 22.8094C14.4131 23.615 12.7154 24.616 10.8698 25.453C10.4855 25.6273 9.79729 25.4682 9.24921 25.4631C9.43404 25.168 9.53707 24.807 9.81654 24.5882C11.5272 23.2518 13.1038 21.7789 15.0545 20.6702C18.4109 18.7624 21.7707 16.7978 25.5597 15.3821C31.7747 13.0594 38.2074 10.9775 44.7978 9.14782C48.4675 8.12906 52.5705 7.6819 56.6032 7.23295C62.4132 6.58657 68.2223 5.85659 74.237 5.73138C84.2965 5.52138 94.4979 5.73043 105.064 7.40185C114.068 8.82617 123.062 10.0884 132.048 11.3225C141.193 12.5784 150.234 15.5071 159.317 17.7855C161.591 18.3559 164.134 19.6736 166.003 18.3231C169.495 15.8004 172.932 13.2309 176.403 10.6908C176.76 10.4293 177.196 10.2339 177.596 10.0078C178.016 10.4671 178.637 10.9188 178.818 11.3875C179.368 12.8085 179.779 14.2368 180.188 15.6607C181.498 20.2163 182.946 24.7814 184.022 29.3231C184.771 32.4875 185.017 35.6222 185.441 38.7643C185.548 39.554 185.477 40.3215 185.487 41.0989C184.457 40.8607 183.396 40.7311 182.402 40.3667C176.207 38.0968 170.059 35.6424 163.831 33.5167C159.846 32.1562 155.749 31.2753 151.708 30.1319C150.909 29.9056 150.138 29.4633 149.354 29.1203C149.832 28.7824 150.303 28.4388 150.788 28.1075C152.791 26.7392 154.833 25.4032 156.734 23.9519C156.879 23.8413 156.045 22.5308 155.646 22.4402C150.137 21.1933 144.618 19.9169 139.116 18.9381C131.306 17.5487 123.498 16.3038 115.709 15.1803C110.425 14.4185 105.144 13.8286 99.915 13.4189C93.3648 12.9058 86.695 12.1912 80.3884 12.3922C68.2046 12.7812 56.1413 13.5366 44.227 14.5776C38.9091 15.0419 34.0718 16.5633 28.6373 17.6771Z" fill="black"/>
</svg>
