<svg width="32" height="33" viewBox="0 0 32 33" fill="none" xmlns="http://www.w3.org/2000/svg">
<path d="M14.1748 30.95H12.5998C7.67741 30.95 3.6748 26.9463 3.6748 22.025V18.9642C3.6748 18.6734 3.91 18.4392 4.1998 18.4392C4.4896 18.4392 4.7248 18.6734 4.7248 18.9642V22.025C4.7248 26.3678 8.25701 29.9 12.5998 29.9H14.1748C14.4646 29.9 14.6998 30.1352 14.6998 30.425C14.6998 30.7148 14.4646 30.95 14.1748 30.95Z" fill="black"/>
<path d="M8.13731 22.0598C8.33366 22.2709 8.32211 22.6048 8.11106 22.8011L8.10896 22.8022C7.89791 22.9996 7.56401 22.987 7.36871 22.7759L4.55891 19.753C4.36151 19.5419 4.04021 19.5419 3.84281 19.753L1.03301 22.7759C0.835613 22.987 0.501713 22.9996 0.290663 22.8022V22.8011C0.0796134 22.6037 0.0670135 22.2709 0.264413 22.0598L3.84281 18.2105C4.04021 17.9995 4.36151 17.9995 4.55891 18.2105L8.13731 22.0598Z" fill="black"/>
<path d="M23.0992 32.0023C18.4677 32.0023 14.6992 28.2328 14.6992 23.6012C14.6992 20.9626 15.9025 18.5287 18.0015 16.9243C18.2335 16.7489 18.5611 16.792 18.7375 17.0219C18.9139 17.2529 18.8698 17.5816 18.6388 17.758C16.8034 19.1618 15.7492 21.2923 15.7492 23.6012C15.7492 27.6542 19.0473 30.9523 23.0992 30.9523C27.1512 30.9523 30.4492 27.6542 30.4492 23.6012C30.4492 19.5482 27.1512 16.2502 23.0992 16.2502C22.1668 16.2502 21.2586 16.4224 20.3997 16.7605C20.1309 16.8697 19.8243 16.7363 19.7193 16.4654C19.6122 16.1966 19.7445 15.8911 20.0143 15.785C20.9961 15.3976 22.0345 15.2002 23.0992 15.2002C27.7308 15.2002 31.4992 18.9697 31.4992 23.6012C31.4992 28.2328 27.7308 32.0023 23.0992 32.0023Z" fill="black"/>
<path d="M23.8646 27.8245C21.5368 27.8245 19.6426 25.9303 19.6426 23.6024C19.6426 21.2746 21.5368 19.3804 23.8646 19.3804C24.5419 19.3804 25.2139 19.5442 25.8113 19.855C26.0686 19.9883 26.1694 20.3054 26.035 20.5627C25.9016 20.822 25.5824 20.9228 25.3273 20.7863C24.8726 20.5501 24.3812 20.4304 23.8646 20.4304C22.1164 20.4304 20.6926 21.8531 20.6926 23.6024C20.6926 25.3517 22.1153 26.7745 23.8646 26.7745C24.5912 26.7745 25.2748 26.5351 25.8407 26.0836C26.0696 25.9051 26.3983 25.9397 26.5789 26.1655C26.7605 26.3923 26.7227 26.723 26.497 26.9036C25.7525 27.4979 24.818 27.8245 23.8646 27.8245Z" fill="black"/>
<path d="M24.1494 25.1774H19.4244C19.1346 25.1774 18.8994 24.9422 18.8994 24.6524C18.8994 24.3626 19.1346 24.1274 19.4244 24.1274H24.1494C24.4392 24.1274 24.6744 24.3626 24.6744 24.6524C24.6744 24.9422 24.4392 25.1774 24.1494 25.1774Z" fill="black"/>
<path d="M24.1494 23.0776H19.4244C19.1346 23.0776 18.8994 22.8424 18.8994 22.5526C18.8994 22.2628 19.1346 22.0276 19.4244 22.0276H24.1494C24.4392 22.0276 24.6744 22.2628 24.6744 22.5526C24.6744 22.8424 24.4392 23.0776 24.1494 23.0776Z" fill="black"/>
<path d="M8.4 17.3021C3.76845 17.3021 0 13.5326 0 8.90105C0 6.2624 1.2033 3.8285 3.30225 2.2241C3.5343 2.04875 3.8619 2.0918 4.0383 2.32175C4.2147 2.55275 4.1706 2.8814 3.9396 3.0578C2.1042 4.46165 1.05 6.5921 1.05 8.90105C1.05 12.9541 4.34805 16.2521 8.4 16.2521C12.452 16.2521 15.75 12.9541 15.75 8.90105C15.75 4.84805 12.452 1.55 8.4 1.55C7.4676 1.55 6.55935 1.7222 5.70045 2.0603C5.43165 2.1695 5.12505 2.03615 5.019 1.76525C4.91295 1.49645 5.04525 1.1909 5.3151 1.08485C6.29685 0.6974 7.3353 0.5 8.4 0.5C13.0315 0.5 16.8 4.2695 16.8 8.90105C16.8 13.5326 13.0315 17.3021 8.4 17.3021Z" fill="black"/>
<path d="M7.87423 13.1012C9.34633 13.1012 10.4992 11.9483 10.4992 10.4762C10.4992 9.28442 9.68968 8.41607 8.09368 7.89527L7.97503 7.85642C7.37653 7.66112 6.82423 7.39862 6.82423 6.80117C6.82423 6.18272 7.25578 5.75117 7.87423 5.75117C8.61343 5.75117 9.10693 6.14807 9.11113 6.15227C9.33478 6.33917 9.66448 6.30977 9.85138 6.08927C10.0383 5.86667 10.0089 5.53697 9.78733 5.35007C9.75583 5.32382 9.00403 4.70117 7.87423 4.70117C6.67618 4.70117 5.77423 5.60417 5.77423 6.80117C5.77423 8.24387 7.18543 8.70482 7.64848 8.85392L7.76713 8.89277C8.90008 9.26237 9.44923 9.78107 9.44923 10.4762C9.44923 11.3739 8.77198 12.0512 7.87423 12.0512C6.89983 12.0512 6.34228 11.4086 6.19423 11.2112C6.01993 10.9781 5.69023 10.9329 5.45923 11.1051C5.22613 11.2794 5.17888 11.6081 5.35318 11.8401C5.57578 12.1373 6.41263 13.1012 7.87423 13.1012Z" fill="black"/>
<path d="M7.87559 14.1512C8.16539 14.1512 8.40059 13.916 8.40059 13.6262V13.1012C8.40059 12.8114 8.16539 12.5762 7.87559 12.5762C7.58579 12.5762 7.35059 12.8114 7.35059 13.1012V13.6262C7.35059 13.916 7.58579 14.1512 7.87559 14.1512Z" fill="black"/>
<path d="M7.87559 5.22612C8.16539 5.22612 8.40059 4.99092 8.40059 4.70112V4.17612C8.40059 3.88632 8.16539 3.65112 7.87559 3.65112C7.58579 3.65112 7.35059 3.88632 7.35059 4.17612V4.70112C7.35059 4.99092 7.58579 5.22612 7.87559 5.22612Z" fill="black"/>
<path d="M27.3008 14.0606C27.012 14.0606 26.7758 13.8264 26.7758 13.5356V10.4748C26.7758 6.132 23.2446 2.5998 18.9008 2.5998H17.3258C17.036 2.5998 16.8008 2.3646 16.8008 2.0748C16.8008 1.785 17.036 1.5498 17.3258 1.5498H18.9008C23.8232 1.5498 27.8258 5.55345 27.8258 10.4748V13.5356C27.8258 13.8264 27.5916 14.0606 27.3008 14.0606Z" fill="black"/>
<path d="M23.3646 10.4421C23.1682 10.231 23.1798 9.89607 23.3908 9.69972H23.3919C23.6029 9.50232 23.9379 9.51492 24.1332 9.72597L26.943 12.7489C27.1393 12.96 27.4606 12.96 27.658 12.7489L30.4689 9.72597C30.6652 9.51492 30.9991 9.50232 31.2102 9.69972H31.2112C31.4223 9.89712 31.4338 10.231 31.2375 10.4421L27.658 14.2914C27.4606 14.5024 27.1393 14.5024 26.943 14.2914L23.3646 10.4421Z" fill="black"/>
</svg>
