<svg width="234" height="222" viewBox="0 0 234 222" fill="none" xmlns="http://www.w3.org/2000/svg">
<path fill-rule="evenodd" clip-rule="evenodd" d="M100.173 43.5794V62.5167H169.8V100.486H100.173V144.895C105.543 147.353 111.164 149.221 116.936 150.467C150.862 143.541 182.65 113.989 183.671 60.896L184.028 43.3558L100.173 43.5794Z" fill="#2D7D2F"/>
<path d="M184.072 43.5795L184.737 2.63107C162.209 0.870268 139.62 -0.00740782 117.024 4.70913e-05C94.2278 4.70913e-05 71.6423 0.877053 49.2627 2.63107L49.6617 34.6375L50.331 60.9391C50.331 60.9391 50.331 85.2717 58.8221 102.679C66.7596 121.401 81.5492 136.491 100.26 144.943V100.533H169.797V62.5168H100.17V43.5795H184.072Z" fill="#72BF44"/>
<path d="M6.07458 177.855V182.294H15.349V187.253H6.0731V195.548H0V172.912H16.1326V177.855H6.07458ZM33.1112 189.548H28.4213V195.548H22.3467V172.912H34.0655C35.5783 172.89 37.0861 173.092 38.5416 173.509C39.6028 173.842 40.5007 174.564 41.0483 175.529C41.6761 176.85 41.9611 178.308 41.8795 179.769C41.9047 180.945 41.8379 182.122 41.6791 183.288C41.5471 184.09 41.1513 184.823 40.5556 185.369C39.6949 186.077 38.6669 186.547 37.5725 186.732V186.977C38.6934 186.953 39.7852 187.339 40.6476 188.063C41.0261 188.448 41.3199 188.905 41.5114 189.409C41.7014 189.912 41.7845 190.45 41.7548 190.987V195.579H35.603V192.379C35.603 190.483 34.7719 189.548 33.1126 189.548H33.1112ZM28.4213 184.283H33.1112C33.7015 184.322 34.2924 184.217 34.8342 183.977C35.0102 183.87 35.1608 183.726 35.2752 183.554C35.3897 183.382 35.4651 183.187 35.4962 182.982C35.5986 182.242 35.6342 181.494 35.603 180.749C35.6835 180.025 35.5033 179.297 35.0955 178.697C34.5144 178.269 33.7955 178.078 33.0815 178.161H28.4213V184.284V184.283ZM54.6431 177.855V181.99H64.3493V186.183H54.6431V190.591H65.2101V195.549H48.5818V172.912H64.992V177.855H54.6431ZM78.2364 177.855V181.99H87.9561V186.183H78.2349V190.591H88.802V195.549H72.1767V172.912H88.5868V177.855H78.2364ZM95.5845 195.548V172.912H107.103C108.89 172.843 110.673 173.134 112.348 173.769C113.642 174.304 114.698 175.3 115.316 176.569C116.016 178.183 116.342 179.937 116.27 181.697V186.488C116.328 188.251 116.062 190.01 115.485 191.676C115.012 192.952 114.085 194.005 112.887 194.629C111.338 195.355 109.639 195.691 107.934 195.609L95.5845 195.549V195.548ZM101.644 178.161V190.298H106.95C108.995 190.298 110.025 188.997 110.025 186.426V181.697C110.061 180.948 109.951 180.199 109.703 179.492C109.619 179.262 109.49 179.051 109.323 178.873C109.157 178.694 108.956 178.551 108.734 178.452C108.166 178.232 107.558 178.133 106.95 178.161H101.644ZM132.833 195.671C131.36 195.686 129.887 195.567 128.436 195.318C127.289 195.123 126.191 194.702 125.205 194.078C124.264 193.459 123.522 192.576 123.068 191.538C122.521 190.216 122.264 188.791 122.314 187.359V181.023C122.264 179.592 122.521 178.166 123.068 176.845C123.512 175.784 124.255 174.879 125.205 174.243C126.191 173.619 127.289 173.198 128.436 173.003C131.351 172.554 134.318 172.554 137.232 173.003C138.385 173.195 139.488 173.616 140.478 174.243C141.419 174.863 142.161 175.745 142.615 176.784C143.156 178.109 143.412 179.533 143.369 180.962V187.359C143.412 188.79 143.156 190.212 142.615 191.538C142.172 192.599 141.428 193.504 140.478 194.14C139.488 194.766 138.385 195.188 137.232 195.38C135.78 195.629 134.307 195.747 132.833 195.732V195.671ZM132.833 190.483C133.712 190.506 134.59 190.423 135.449 190.236C135.718 190.165 135.97 190.036 136.187 189.86C136.405 189.683 136.583 189.462 136.71 189.211C137.026 188.436 137.163 187.599 137.109 186.762V181.666C137.127 180.99 137.055 180.316 136.894 179.661C136.774 179.23 136.521 178.849 136.171 178.574C135.799 178.305 135.365 178.137 134.91 178.085C134.221 178.002 133.528 177.965 132.833 177.978C131.966 177.95 131.099 178.027 130.25 178.208C129.984 178.279 129.736 178.406 129.521 178.58C129.307 178.754 129.131 178.971 129.004 179.218C128.689 179.993 128.537 180.827 128.559 181.666V186.762C128.537 187.601 128.689 188.435 129.004 189.211C129.128 189.462 129.303 189.683 129.518 189.859C129.733 190.036 129.982 190.165 130.25 190.236C131.099 190.424 131.965 190.507 132.833 190.483ZM155.349 178.193L155.965 195.548H149.891V172.912H159.502L163.84 187.115H164.07L168.192 172.912H178.034V195.548H171.975L172.591 178.191H172.375L166.608 195.548H161.363L155.535 178.193H155.349Z" fill="black"/>
<path d="M211.992 190.833V195.547H194.013V190.835C193.988 189.739 194.091 188.645 194.32 187.573C194.494 186.82 194.884 186.134 195.443 185.598C196.123 185.013 196.911 184.566 197.765 184.282C199.163 183.813 200.584 183.419 202.025 183.104C203.563 182.737 204.609 182.477 205.101 182.324C205.288 182.276 205.464 182.191 205.617 182.072C205.77 181.954 205.898 181.805 205.993 181.635C206.182 181.09 206.261 180.512 206.224 179.936C206.26 179.371 206.165 178.805 205.947 178.284C205.849 178.107 205.714 177.954 205.552 177.835C205.39 177.716 205.205 177.634 205.009 177.593C204.361 177.464 203.701 177.408 203.041 177.427C202.334 177.404 201.627 177.46 200.933 177.595C200.746 177.634 200.571 177.716 200.422 177.836C200.272 177.956 200.153 178.109 200.072 178.284C199.89 178.857 199.807 179.457 199.826 180.059V181.176H194.013V180.059C193.974 178.793 194.172 177.53 194.597 176.339C194.924 175.438 195.514 174.659 196.289 174.106C197.124 173.558 198.061 173.188 199.042 173.018C200.353 172.798 201.681 172.696 203.009 172.713C204.664 172.668 206.318 172.833 207.931 173.202C209.15 173.48 210.221 174.212 210.93 175.252C211.739 176.643 212.115 178.242 212.006 179.845C212.026 180.874 211.923 181.902 211.699 182.906C211.535 183.633 211.185 184.303 210.684 184.85C210.16 185.38 209.538 185.801 208.854 186.089C207.854 186.499 206.825 186.843 205.777 187.114C205.101 187.297 204.24 187.497 203.164 187.727C202.426 187.862 201.7 188.057 200.995 188.307C200.618 188.443 200.308 188.723 200.133 189.088C199.919 189.621 199.825 190.197 199.857 190.772L211.992 190.833ZM232.109 172.911V186.685H234V191.078H232.062V195.547H226.31V191.078H214.406V184.62L223.234 172.911H232.109ZM226.356 186.685V177.503H226.141L219.221 186.685H226.356Z" fill="#72BF44"/>
<path d="M49.8042 219.103C51.7559 219.103 52.7681 217.792 52.7681 215.814V213.045C52.7681 211.067 51.7737 209.736 49.8592 209.736C48.8114 209.736 47.9238 210.132 47.3391 210.831H47.3035V205.492H46.0078V218.961H47.1432L47.2144 218.008H47.25C47.8704 218.728 48.7579 219.103 49.8042 219.103ZM47.3035 211.966C47.5579 211.619 47.8896 211.337 48.2717 211.143C48.6538 210.949 49.0755 210.849 49.503 210.851C50.8342 210.851 51.4724 211.696 51.4724 213.063V215.814C51.4724 217.199 50.8164 218.026 49.4852 218.026C48.4388 218.026 47.7294 217.54 47.3035 216.875V211.966ZM61.9965 209.898H60.631L58.1822 217.342H58.1466L55.3267 209.898H53.8708L57.5247 218.817L57.3659 219.303C56.9934 220.417 56.425 220.885 55.3431 221.047L55.4499 222C57.029 221.91 57.9151 221.099 58.5013 219.5L61.9965 209.898ZM68.1556 205.924V218.961H69.6101V213.009H74.5078V211.786H69.6101V207.217H75.3062V205.924H68.1556ZM81.219 210.006C80.8819 209.84 80.512 209.754 80.1371 209.754C79.1086 209.754 78.2745 210.347 77.7773 211.624H77.7417L77.6898 209.898H76.5529V218.961H77.8486V213.764C77.991 212.146 78.7539 210.977 80.1193 210.977C80.4562 210.977 80.7575 211.049 81.0246 211.191L81.2205 210.006H81.219ZM88.6353 214.429V212.991C88.6353 211.155 87.4628 209.734 85.4236 209.734C83.3473 209.734 82.1763 211.103 82.1763 212.955V215.886C82.1763 217.774 83.3488 219.123 85.477 219.123C87.1274 219.123 88.1381 218.35 88.6531 216.857L87.7121 216.479C87.2521 217.612 86.6124 218.08 85.5824 218.08C84.2348 218.08 83.472 217.253 83.472 215.85V214.429H88.6353ZM83.4705 212.883C83.4705 211.624 84.1101 210.761 85.4592 210.761C86.7356 210.761 87.4821 211.571 87.4821 212.865V213.566H83.472V212.883H83.4705ZM96.709 214.429V212.991C96.709 211.155 95.538 209.734 93.4973 209.734C91.4225 209.734 90.25 211.103 90.25 212.955V215.886C90.25 217.774 91.4225 219.123 93.5508 219.123C95.2011 219.123 96.2118 218.35 96.7268 216.857L95.7859 216.479C95.3258 217.612 94.6876 218.08 93.6576 218.08C92.3085 218.08 91.5457 217.253 91.5457 215.85V214.429H96.7105H96.709ZM91.5457 212.883C91.5457 211.624 92.1839 210.761 93.5344 210.761C94.8108 210.761 95.5558 211.571 95.5558 212.865V213.566H91.5457V212.883ZM101.289 209.718C99.3359 209.718 98.3252 211.049 98.3252 213.027V215.814C98.3252 217.792 99.3359 219.123 101.234 219.123C102.3 219.123 103.205 218.727 103.825 218.008H103.861L103.932 218.961H105.085V205.492H103.79V210.743H103.754C103.152 210.078 102.282 209.718 101.288 209.718H101.289ZM103.79 216.911C103.538 217.261 103.207 217.545 102.824 217.739C102.442 217.933 102.018 218.031 101.59 218.026C100.259 218.026 99.6209 217.199 99.6209 215.832V213.045C99.6209 211.642 100.277 210.815 101.608 210.815C102.032 210.806 102.452 210.901 102.832 211.091C103.212 211.282 103.541 211.563 103.79 211.91V216.911ZM114.062 212.955C114.062 211.085 112.873 209.736 110.672 209.736C108.472 209.736 107.284 211.101 107.284 212.955V215.94C107.284 217.81 108.471 219.121 110.672 219.121C112.853 219.121 114.062 217.792 114.062 215.94V212.953V212.955ZM108.579 212.991C108.579 211.66 109.217 210.779 110.672 210.779C112.11 210.779 112.766 211.66 112.766 212.991V215.886C112.766 217.217 112.11 218.08 110.673 218.08C109.234 218.08 108.579 217.217 108.579 215.886V212.989V212.991ZM122.319 213.045C122.319 211.516 123.1 210.869 124.148 210.869C125.354 210.869 125.886 211.696 125.886 213.045V218.961H127.181V213.045C127.181 210.833 126.153 209.736 124.431 209.736C123.332 209.736 122.428 210.293 121.947 211.245H121.911C121.521 210.202 120.705 209.736 119.676 209.736C118.753 209.736 117.903 210.186 117.352 211.011H117.316V209.898H116.163V218.961H117.459V212.234C117.813 211.444 118.541 210.869 119.373 210.869C120.35 210.869 121.025 211.444 121.025 213.045V218.961H122.319V213.045ZM133.964 205.924V218.961H135.418V213.009H140.316V211.786H135.418V207.217H141.114V205.924H133.964ZM143.197 209.898V218.961H144.492V209.896H143.197V209.898ZM143.215 205.924V207.758H144.475V205.924H143.215ZM148.422 211.984C148.675 211.629 149.009 211.341 149.394 211.144C149.78 210.947 150.207 210.846 150.64 210.851C151.953 210.851 152.591 211.66 152.591 213.063V218.961H153.887V213.045C153.887 211.049 152.893 209.736 150.977 209.736C149.895 209.736 148.972 210.15 148.351 210.905H148.316L148.28 209.898H147.127V218.961H148.422V211.982V211.984ZM156.775 212.18C157.29 211.3 157.964 210.779 158.834 210.779C159.933 210.779 160.484 211.462 160.484 212.811V213.8H159.686C156.668 213.8 155.693 215.041 155.693 216.713C155.693 218.169 156.615 219.105 158.194 219.105C159.117 219.105 159.969 218.781 160.625 218.152C160.839 218.673 161.334 219.067 162.097 219.067C162.347 219.067 162.577 219.015 162.773 218.961V218.17H162.523C162.027 218.17 161.778 217.864 161.778 217.36V212.811C161.778 211.049 160.962 209.718 158.992 209.718C157.591 209.718 156.65 210.509 155.977 211.66L156.775 212.182V212.18ZM158.443 218.134C157.502 218.134 156.953 217.684 156.953 216.641C156.953 215.49 157.574 214.753 159.686 214.753H160.484V217.181C159.951 217.811 159.329 218.134 158.443 218.134ZM165.576 211.984C165.829 211.629 166.162 211.341 166.548 211.144C166.934 210.947 167.361 210.846 167.793 210.851C169.107 210.851 169.745 211.66 169.745 213.063V218.961H171.041V213.045C171.041 211.049 170.046 209.736 168.13 209.736C167.048 209.736 166.125 210.15 165.505 210.905H165.469L165.434 209.898H164.28V218.961H165.576V211.982V211.984ZM179.199 211.714C178.666 210.491 177.602 209.736 176.2 209.736C174.089 209.736 172.954 211.119 172.954 212.955V215.904C172.954 217.72 174.089 219.123 176.2 219.123C177.779 219.123 178.773 218.278 179.252 217.001L178.311 216.623C177.903 217.613 177.265 218.062 176.289 218.062C174.993 218.062 174.248 217.252 174.248 215.85V213.009C174.248 211.57 174.975 210.815 176.289 210.815C177.194 210.815 177.921 211.245 178.294 212.146L179.199 211.714ZM186.983 214.429V212.991C186.983 211.155 185.812 209.734 183.772 209.734C181.695 209.734 180.524 211.103 180.524 212.955V215.886C180.524 217.774 181.695 219.123 183.825 219.123C185.475 219.123 186.486 218.35 187.001 216.857L186.06 216.479C185.6 217.612 184.96 218.08 183.932 218.08C182.583 218.08 181.82 217.253 181.82 215.85V214.429H186.983ZM181.82 212.883C181.82 211.624 182.46 210.761 183.807 210.761C185.085 210.761 185.83 211.571 185.83 212.865V213.566H181.82V212.883Z" fill="#777777"/>
</svg>
