<svg width="136" height="151" viewBox="0 0 136 151" fill="none" xmlns="http://www.w3.org/2000/svg">
<path fill-rule="evenodd" clip-rule="evenodd" d="M51.1729 43.5794V62.5167H120.8V100.486H51.1729V144.895C56.5435 147.353 62.164 149.221 67.9361 150.467C101.862 143.541 133.65 113.989 134.671 60.896L135.028 43.3558L51.1729 43.5794Z" fill="#2D7D2F"/>
<path d="M135.072 43.5795L135.737 2.63107C113.209 0.870268 90.6203 -0.00740782 68.0235 4.70913e-05C45.2278 4.70913e-05 22.6423 0.877053 0.262695 2.63107L0.661717 34.6375L1.33104 60.9391C1.33104 60.9391 1.33104 85.2717 9.82206 102.679C17.7596 121.401 32.5492 136.491 51.2603 144.943V100.533H120.797V62.5168H51.1702V43.5795H135.072Z" fill="#72BF44"/>
</svg>
