<svg width="36" height="36" viewBox="0 0 36 36" fill="none" xmlns="http://www.w3.org/2000/svg">
<path fill-rule="evenodd" clip-rule="evenodd" d="M2.67188 26.4184V9.22165C2.67188 7.96915 3.68887 6.95215 4.94138 6.95215H30.9281C32.1791 6.95215 33.1991 7.96765 33.1991 9.22165V26.4184C33.1991 27.6709 32.1821 28.6879 30.9281 28.6879H4.94138C3.68887 28.6879 2.67188 27.6709 2.67188 26.4184ZM31.7636 26.4184V9.22165C31.7636 8.76415 31.3901 8.38915 30.9281 8.38915H4.94138C4.48238 8.38915 4.10888 8.76265 4.10888 9.22165V26.4184C4.10888 26.8782 4.48238 27.2509 4.94138 27.2509H30.9281C31.3886 27.2509 31.7636 26.8782 31.7636 26.4184Z" fill="black"/>
<path fill-rule="evenodd" clip-rule="evenodd" d="M5.19434 9.83063C5.19434 9.45038 5.50409 9.14062 5.88359 9.14062C6.26384 9.14062 6.57209 9.45038 6.57209 9.83063C6.57209 10.2079 6.26384 10.5184 5.88359 10.5184C5.50409 10.5184 5.19434 10.2079 5.19434 9.83063ZM7.14509 9.83063C7.14509 9.45038 7.45334 9.14062 7.83284 9.14062C8.21309 9.14062 8.52209 9.45038 8.52209 9.83063C8.52209 10.2079 8.21309 10.5184 7.83284 10.5184C7.45334 10.5184 7.14509 10.2079 7.14509 9.83063ZM9.09359 9.83063C9.09359 9.45038 9.40259 9.14062 9.78134 9.14062C10.1608 9.14062 10.4706 9.45038 10.4706 9.83063C10.4706 10.2079 10.1608 10.5184 9.78134 10.5184C9.40259 10.5184 9.09359 10.2079 9.09359 9.83063Z" fill="black"/>
<path fill-rule="evenodd" clip-rule="evenodd" d="M7.52494 25.3776L7.52344 24.7933C7.66369 24.8503 7.81444 24.8811 7.97569 24.8811C8.12344 24.8811 8.26519 24.8548 8.39419 24.8061V25.3776H7.52494ZM12.5117 25.3776V24.5076H13.3809V25.3776H12.5117ZM17.5007 25.3776V24.5076H18.3707V25.3776H17.5007ZM22.4882 25.3776V24.5076H23.3574V25.3776H22.4882ZM27.4772 25.3776V24.5076H28.3472V25.3776H27.4772ZM12.5117 23.9886V23.1208H13.3809V23.9886H12.5117ZM17.5007 23.9886V23.1208H18.3707V23.9886H17.5007ZM22.4882 23.9886V23.1208H23.3574V23.9886H22.4882ZM27.4772 23.9886V23.1208H28.3472V23.9886H27.4772ZM12.5117 22.6018V21.7326H13.3809V22.6018H12.5117ZM17.5007 22.6018V21.7326H18.3707V22.6018H17.5007ZM22.4882 22.6018L22.4867 21.7513C22.6299 21.8113 22.7882 21.8451 22.9539 21.8451C23.0942 21.8451 23.2299 21.8218 23.3574 21.7753V22.6018H22.4882ZM27.4772 22.6018V21.7326H28.3472V22.6018H27.4772ZM7.52344 22.5778L7.52494 21.7326H8.39419V22.5666V22.5636C8.26519 22.5141 8.12344 22.4871 7.97569 22.4871C7.81444 22.4871 7.66369 22.5193 7.52344 22.5778ZM7.52644 21.1401V20.2716H8.39569V21.1401H7.52644ZM12.5132 21.1401V20.2716H13.3832V21.1401H12.5132ZM17.5029 21.1401V20.2716H18.3722V21.1401H17.5029ZM27.4787 21.1401V20.2716H28.3487V21.1401H27.4787ZM7.52644 19.7526V18.8833H8.39419V19.7526H7.52644ZM12.5132 19.7526L12.5117 19.3768C12.6744 19.4593 12.8567 19.5036 13.0517 19.5036C13.1642 19.5036 13.2759 19.4878 13.3809 19.4578V19.7526H12.5132ZM17.5029 19.7526V18.8833H18.3707V19.7526H17.5029ZM27.4787 19.7526V18.8833H28.3472V19.7526H27.4787ZM22.4882 19.5456L22.4897 18.8833H23.3574V19.5283V19.5231C23.2299 19.4773 23.0942 19.4511 22.9539 19.4511C22.7882 19.4511 22.6314 19.4863 22.4882 19.5456ZM7.52644 18.3651V17.4966H8.39419V18.3651H7.52644ZM17.5029 18.3651L17.5007 17.8476C17.6349 17.9001 17.7812 17.9293 17.9364 17.9293C18.0894 17.9293 18.2364 17.9001 18.3707 17.8476V18.3651H17.5029ZM22.4897 18.3651V17.4966H23.3574V18.3651H22.4897ZM27.4787 18.3651V17.4966H28.3472V18.3651H27.4787ZM7.52644 16.9761V16.1076H8.39419V16.9761H7.52644ZM12.5132 16.9761V16.1076H13.3809V16.9761H12.5132ZM22.4897 16.9761V16.1076H23.3574V16.9761H22.4897ZM27.4787 16.9761V16.1076H28.3472V16.9761H27.4787ZM7.52494 15.5893V14.7193H8.39419V15.5893H7.52494ZM12.5117 15.5893V14.7193H13.3809V15.5893H12.5117ZM17.5007 15.5893V14.7193H18.3707V15.5893H18.2889C18.1772 15.5541 18.0594 15.5353 17.9364 15.5353C17.8119 15.5353 17.6934 15.5541 17.5824 15.5893H17.5007ZM22.4882 15.5893V14.7193H23.3574V15.5893H22.4882ZM7.52494 14.2011V13.3326H8.39419V14.2011H7.52494ZM12.5117 14.2011V13.3326H13.3809V14.2011H12.5117ZM17.5007 14.2011V13.3326H18.3707V14.2011H17.5007ZM22.4882 14.2011V13.3326H23.3574V14.2011H22.4882ZM27.9054 13.6798C27.7532 13.6798 27.6084 13.7091 27.4757 13.7601L27.4772 13.7631V13.3326H28.3472V13.7683V13.7661C28.2099 13.7106 28.0592 13.6798 27.9054 13.6798ZM7.52494 12.8136V11.9443H8.39419V12.8136H7.52494ZM12.5117 12.8136V11.9443H13.3809V12.8136H12.5117ZM17.5007 12.8136V11.9443H18.3707V12.8136H17.5007ZM22.4882 12.8136V11.9443H23.3574V12.8136H22.4882ZM27.4772 12.8136V11.9443H28.3472V12.8136H27.4772Z" fill="black"/>
<path fill-rule="evenodd" clip-rule="evenodd" d="M6.38086 23.6828C6.38086 22.8038 7.09561 22.0868 7.97611 22.0868C8.13286 22.0868 8.28586 22.11 8.43136 22.1535L11.5499 18.8513C11.4891 18.681 11.4554 18.4973 11.4554 18.306C11.4554 17.4263 12.1709 16.71 13.0521 16.71C13.4954 16.71 13.8974 16.8938 14.1861 17.187L16.3589 16.4865C16.4766 15.7238 17.1389 15.1343 17.9369 15.1343C18.8159 15.1343 19.5329 15.8513 19.5329 16.731C19.5329 16.848 19.5201 16.962 19.4961 17.0723L22.1856 19.2585L22.1789 19.2525C22.4084 19.125 22.6716 19.0515 22.9544 19.0515C23.1111 19.0515 23.2641 19.0755 23.4096 19.1183L26.4209 15.4665C26.3489 15.285 26.3091 15.0848 26.3091 14.8755C26.3091 13.9965 27.0246 13.2803 27.9059 13.2803C28.7849 13.2803 29.5011 13.9965 29.5011 14.8755C29.5011 15.7568 28.7849 16.4723 27.9059 16.4723C27.7634 16.4723 27.6276 16.4543 27.4979 16.4213L24.4514 20.1143L24.4566 20.1098C24.5166 20.277 24.5504 20.4593 24.5504 20.6468C24.5504 21.528 23.8341 22.2435 22.9544 22.2435C22.0731 22.2435 21.3591 21.528 21.3591 20.6468C21.3591 20.58 21.3621 20.5118 21.3711 20.4465L21.3779 20.451L18.5864 18.1883C18.3884 18.2775 18.1679 18.3263 17.9369 18.3263C17.4929 18.3263 17.0924 18.1463 16.8021 17.8545L14.6249 18.5565C14.5071 19.3193 13.8449 19.902 13.0521 19.902C12.8924 19.902 12.7386 19.8795 12.5939 19.836L9.47161 23.145L9.47686 23.1398C9.53761 23.3093 9.57211 23.493 9.57211 23.6828C9.57211 24.564 8.85586 25.278 7.97611 25.278C7.09561 25.278 6.38086 24.564 6.38086 23.6828ZM8.77486 23.6828C8.77486 23.2455 8.41336 22.884 7.97611 22.884C7.53736 22.884 7.17811 23.2455 7.17811 23.6828C7.17811 24.1215 7.53736 24.4808 7.97611 24.4808C8.41336 24.4808 8.77486 24.1215 8.77486 23.6828ZM23.7531 20.6468C23.7531 20.2095 23.3916 19.8495 22.9544 19.8495C22.5156 19.8495 22.1564 20.2095 22.1564 20.6468C22.1564 21.0855 22.5156 21.4455 22.9544 21.4455C23.3916 21.4455 23.7531 21.0855 23.7531 20.6468ZM23.4051 19.125L23.4096 19.1183L23.4051 19.125ZM13.8494 18.306C13.8494 17.868 13.4894 17.508 13.0521 17.508C12.6126 17.508 12.2534 17.868 12.2534 18.306C12.2534 18.7448 12.6126 19.104 13.0521 19.104C13.4894 19.104 13.8494 18.7448 13.8494 18.306ZM14.6219 18.5565H14.6249H14.6219ZM18.7349 16.731C18.7349 16.2938 18.3741 15.9323 17.9369 15.9323C17.4981 15.9323 17.1389 16.2938 17.1389 16.731C17.1389 17.1698 17.4981 17.5283 17.9369 17.5283C18.3741 17.5283 18.7349 17.1698 18.7349 16.731ZM28.7031 14.8755C28.7031 14.439 28.3424 14.0783 27.9059 14.0783C27.4664 14.0783 27.1071 14.439 27.1071 14.8755C27.1071 15.315 27.4664 15.6743 27.9059 15.6743C28.3424 15.6743 28.7031 15.315 28.7031 14.8755Z" fill="black"/>
</svg>
