<svg width="90" height="18" viewBox="0 0 90 18" fill="none" xmlns="http://www.w3.org/2000/svg">
<path d="M0 9C0 7.26891 0.378027 5.72269 1.13408 4.36134C1.90657 2.98319 2.95026 1.91597 4.26513 1.15966C5.59645 0.386555 7.0839 0 8.7275 0C10.6505 0 12.3352 0.504202 13.7816 1.51261C15.2279 2.52101 16.2387 3.91597 16.814 5.69748H12.8447C12.4502 4.85714 11.8914 4.22689 11.1682 3.80672C10.4615 3.38655 9.63969 3.17647 8.70284 3.17647C7.70025 3.17647 6.80449 3.42017 6.01556 3.90756C5.24307 4.37815 4.63494 5.05042 4.19117 5.92437C3.76384 6.79832 3.55017 7.82353 3.55017 9C3.55017 10.1597 3.76384 11.1849 4.19117 12.0756C4.63494 12.9496 5.24307 13.6303 6.01556 14.1176C6.80449 14.5882 7.70025 14.8235 8.70284 14.8235C9.63969 14.8235 10.4615 14.6134 11.1682 14.1933C11.8914 13.7563 12.4502 13.1176 12.8447 12.2773H16.814C16.2387 14.0756 15.2279 15.479 13.7816 16.4874C12.3516 17.479 10.6669 17.9748 8.7275 17.9748C7.0839 17.9748 5.59645 17.5966 4.26513 16.8403C2.95026 16.0672 1.90657 15 1.13408 13.6387C0.378027 12.2773 0 10.7311 0 9Z" fill="black"/>
<path d="M29.3771 15.0252H35.0475V17.8235H25.9256V0.226891H29.3771V15.0252Z" fill="black"/>
<path d="M44.9334 18C44.3088 18 43.7911 17.8067 43.3802 17.4202C42.9857 17.0168 42.7885 16.521 42.7885 15.9328C42.7885 15.3445 42.9857 14.8571 43.3802 14.4706C43.7911 14.0672 44.3088 13.8655 44.9334 13.8655C45.5415 13.8655 46.0428 14.0672 46.4372 14.4706C46.8317 14.8571 47.0289 15.3445 47.0289 15.9328C47.0289 16.521 46.8317 17.0168 46.4372 17.4202C46.0428 17.8067 45.5415 18 44.9334 18ZM44.9334 7.56302C44.3088 7.56302 43.7911 7.36975 43.3802 6.98319C42.9857 6.57983 42.7885 6.08403 42.7885 5.4958C42.7885 4.90756 42.9857 4.42017 43.3802 4.03361C43.7911 3.63025 44.3088 3.42857 44.9334 3.42857C45.5415 3.42857 46.0428 3.63025 46.4372 4.03361C46.8317 4.42017 47.0289 4.90756 47.0289 5.4958C47.0289 6.08403 46.8317 6.57983 46.4372 6.98319C46.0428 7.36975 45.5415 7.56302 44.9334 7.56302Z" fill="black"/>
<path d="M66.6706 0.226891V3.07563H59.4963V7.58823H64.9942V10.3866H59.4963V17.8235H56.0448V0.226891H66.6706Z" fill="black"/>
<path d="M90 17.8235H86.5484L78.7331 5.7479V17.8235H75.2816V0.20168H78.7331L86.5484 12.3025V0.20168H90V17.8235Z" fill="black"/>
</svg>
