<svg width="209" height="42" viewBox="0 0 209 42" fill="none" xmlns="http://www.w3.org/2000/svg">
<path d="M0.265625 21.1123C0.265625 17.1025 1.14126 13.521 2.89253 10.3677C4.68187 7.17543 7.09938 4.70338 10.1451 2.95154C13.2288 1.16077 16.6743 0.265381 20.4814 0.265381C24.9357 0.265381 28.838 1.43328 32.1882 3.76907C35.5385 6.10486 37.8798 9.33604 39.2123 13.4626H30.0182C29.1045 11.5161 27.81 10.0562 26.1349 9.08299C24.4979 8.10975 22.5943 7.62312 20.4243 7.62312C18.1019 7.62312 16.027 8.1876 14.1996 9.31657C12.4103 10.4066 11.0017 11.9638 9.97375 13.9882C8.9839 16.0125 8.48897 18.3872 8.48897 21.1123C8.48897 23.7985 8.9839 26.1732 9.97375 28.2365C11.0017 30.2608 12.4103 31.8375 14.1996 32.9665C16.027 34.0565 18.1019 34.6015 20.4243 34.6015C22.5943 34.6015 24.4979 34.1149 26.1349 33.1416C27.81 32.1295 29.1045 30.6501 30.0182 28.7036H39.2123C37.8798 32.8691 35.5385 36.1198 32.1882 38.4556C28.876 40.7524 24.9737 41.9009 20.4814 41.9009C16.6743 41.9009 13.2288 41.0249 10.1451 39.2731C7.09938 37.4823 4.68187 35.0103 2.89253 31.857C1.14126 28.7036 0.265625 25.1221 0.265625 21.1123Z" fill="white"/>
<path d="M68.3126 35.0687H81.4471V41.5505H60.3177V0.790934H68.3126V35.0687Z" fill="white"/>
<path d="M104.346 41.9593C102.899 41.9593 101.7 41.5116 100.748 40.6162C99.8345 39.6819 99.3777 38.5334 99.3777 37.1709C99.3777 35.8083 99.8345 34.6794 100.748 33.784C101.7 32.8497 102.899 32.3825 104.346 32.3825C105.755 32.3825 106.916 32.8497 107.829 33.784C108.743 34.6794 109.2 35.8083 109.2 37.1709C109.2 38.5334 108.743 39.6819 107.829 40.6162C106.916 41.5116 105.755 41.9593 104.346 41.9593ZM104.346 17.7838C102.899 17.7838 101.7 17.3361 100.748 16.4407C99.8345 15.5064 99.3777 14.358 99.3777 12.9954C99.3777 11.6329 99.8345 10.5039 100.748 9.60854C101.7 8.67423 102.899 8.20707 104.346 8.20707C105.755 8.20707 106.916 8.67423 107.829 9.60854C108.743 10.5039 109.2 11.6329 109.2 12.9954C109.2 14.358 108.743 15.5064 107.829 16.4407C106.916 17.3361 105.755 17.7838 104.346 17.7838Z" fill="white"/>
<path d="M154.697 0.790934V7.38954H138.079V17.8422H150.813V24.324H138.079V41.5505H130.084V0.790934H154.697Z" fill="white"/>
<path d="M208.735 41.5505H200.74L182.637 13.5794V41.5505H174.642V0.732537H182.637L200.74 28.762V0.732537H208.735V41.5505Z" fill="white"/>
</svg>
