<svg width="30" height="28" viewBox="0 0 30 28" fill="none" xmlns="http://www.w3.org/2000/svg">
<path d="M11.1869 14.0588C11.6112 13.5098 11.875 12.8251 11.875 12.0717C11.875 10.2993 10.4731 8.85742 8.75 8.85742C7.02688 8.85742 5.625 10.2993 5.625 12.0717C5.625 12.8251 5.88875 13.5098 6.31312 14.0588C4.85812 14.3326 3.75 15.6402 3.75 17.2145V21.7145H13.75V17.2145C13.75 15.6402 12.6419 14.3326 11.1869 14.0588ZM8.75 10.1431C9.78375 10.1431 10.625 11.0084 10.625 12.0717C10.625 13.135 9.78375 14.0003 8.75 14.0003C7.71625 14.0003 6.875 13.135 6.875 12.0717C6.875 11.0084 7.71625 10.1431 8.75 10.1431ZM12.5 20.4288H5V17.2145C5 16.1512 5.84125 15.286 6.875 15.286H10.625C11.6588 15.286 12.5 16.1512 12.5 17.2145V20.4288Z" fill="black"/>
<path d="M20.0005 10.7859H15.6255V12.0716H20.0005V10.7859Z" fill="black"/>
<path d="M26.25 10.7859H21.875V12.0716H26.25V10.7859Z" fill="black"/>
<path d="M17.5005 14H15.6255V15.2857H17.5005V14Z" fill="black"/>
<path d="M26.25 14H19.375V15.2857H26.25V14Z" fill="black"/>
<path d="M20.6255 17.2144H15.6255V18.5001H20.6255V17.2144Z" fill="black"/>
<path d="M26.25 17.2144H23.75V18.5001H26.25V17.2144Z" fill="black"/>
<path d="M16.8755 20.4287H15.6255V21.7144H16.8755V20.4287Z" fill="black"/>
<path d="M19.375 20.4287H18.125V21.7144H19.375V20.4287Z" fill="black"/>
<path d="M21.875 20.4287H20.625V21.7144H21.875V20.4287Z" fill="black"/>
<path d="M26.25 20.4287H25V21.7144H26.25V20.4287Z" fill="black"/>
<path d="M17.5 0.5H12.5V4.35712H0V27.4999H30V4.35712H17.5V0.5ZM13.75 1.78571H16.25V4.35712V6.92854H13.75V4.35712V1.78571ZM28.75 5.64283V26.2142H1.25V5.64283H12.5V8.21425H17.5V5.64283H28.75Z" fill="black"/>
</svg>
