<svg width="30" height="30" viewBox="0 0 30 30" fill="none" xmlns="http://www.w3.org/2000/svg">
<path d="M16.5791 0C16.0418 0 15.5128 0.0393103 14.9917 0.108621C14.4549 0.0382759 13.9259 0 13.4212 0C9.54642 0 6.05217 1.84655 3.60004 4.79172C3.5753 4.81345 3.55688 4.83931 3.53688 4.86569C2.75529 5.81741 2.08371 6.88241 1.54054 8.03483C1.52686 8.05966 1.51528 8.08345 1.50581 8.11034C1.13159 8.91569 0.818956 9.76241 0.57948 10.6443C0.555795 10.694 0.545269 10.7483 0.538427 10.8052C0.190002 12.1371 0 13.544 0 15C0 17.2784 0.458952 19.4384 1.2758 21.3745C1.28317 21.3947 1.29001 21.4138 1.29949 21.4324C1.78949 22.5807 2.40582 23.6483 3.12898 24.6134C3.14688 24.6372 3.16161 24.6631 3.18372 24.6838C3.91531 25.6484 4.75426 26.5076 5.67901 27.2405C5.7048 27.269 5.73638 27.2891 5.76796 27.3114C7.94009 29.0038 10.578 30 13.4212 30C13.9259 30 14.4549 29.9617 14.9917 29.8914C15.5128 29.9607 16.0418 30 16.5791 30C23.9797 30 30.0003 23.2712 30.0003 15C30.0003 6.72879 23.9797 0 16.5791 0ZM11.0101 1.35776C10.8428 1.44362 10.6775 1.53259 10.5138 1.62569C10.4143 1.68207 10.3138 1.73741 10.2159 1.79638C10.0717 1.88379 9.93063 1.97586 9.78958 2.06897H8.77588C9.54537 1.71517 10.3491 1.43586 11.1859 1.26259C11.1264 1.29207 11.0696 1.32724 11.0101 1.35776ZM5.71585 23.7931H3.82794C3.36372 23.1486 2.95161 22.456 2.59371 21.7241H4.58742C4.67005 21.9078 4.75532 22.0893 4.84426 22.2683C4.88216 22.3448 4.92216 22.4198 4.96111 22.4953C5.06953 22.7043 5.18216 22.9097 5.29901 23.1119C5.34164 23.1864 5.38322 23.2614 5.4269 23.3348C5.52006 23.4905 5.61743 23.6421 5.71585 23.7931ZM2.3516 8.7931H4.36584C4.2732 9.01966 4.18583 9.24879 4.1032 9.48052C4.08057 9.54414 4.05794 9.60724 4.03583 9.67086C3.96004 9.89328 3.88952 10.1178 3.82267 10.3448H1.76634C1.93423 9.81155 2.13002 9.29431 2.3516 8.7931ZM1.05264 15C1.05264 14.6514 1.07159 14.3079 1.0937 13.9655H3.19214C3.19161 13.9738 3.19161 13.9821 3.19109 13.9903C3.17161 14.3245 3.15793 14.6602 3.15793 15C3.15793 15.1733 3.16424 15.345 3.16951 15.5172H1.07317C1.06738 15.3445 1.05264 15.1743 1.05264 15ZM3.22951 16.5517C3.24951 16.7695 3.2753 16.9857 3.30372 17.2009C3.30583 17.2164 3.30688 17.2324 3.30898 17.2484C3.34793 17.536 3.3953 17.821 3.44846 18.1034H1.37265C1.27001 17.5955 1.18896 17.0788 1.13685 16.5517H3.22951ZM3.55583 11.3793C3.54214 11.4409 3.53056 11.5029 3.51741 11.5645C3.5032 11.6322 3.48899 11.6995 3.4753 11.7672C3.41109 12.0921 3.35372 12.4195 3.30898 12.7516C3.30688 12.7671 3.30583 12.7831 3.30372 12.7991C3.29793 12.8431 3.29425 12.8871 3.28846 12.931H1.19949C1.26896 12.4045 1.35686 11.8852 1.47738 11.3793H3.55583ZM3.68162 19.1379C3.69794 19.2016 3.7132 19.2657 3.73057 19.3293C3.73636 19.3516 3.74162 19.3743 3.74794 19.3966C3.83478 19.7121 3.93215 20.0224 4.03689 20.3286C4.05847 20.3922 4.08162 20.4553 4.10426 20.519C4.12426 20.5759 4.14373 20.6328 4.16478 20.6891H2.13581C1.93634 20.1869 1.76476 19.6686 1.61844 19.1374H3.68162V19.1379ZM5.4269 6.66466C5.38322 6.7381 5.34164 6.8131 5.29901 6.88759C5.18216 7.08983 5.06953 7.29569 4.96111 7.50414C4.92216 7.57966 4.88216 7.65465 4.84426 7.73121C4.83953 7.74052 4.83479 7.74931 4.83005 7.75862H2.8574C3.25583 7.02052 3.71478 6.33 4.22373 5.68965H6.06743C6.00322 5.78017 5.93849 5.86966 5.87638 5.96172C5.72112 6.19086 5.57059 6.42517 5.4269 6.66466ZM6.96376 3.10345H8.41799C8.28798 3.21517 8.15798 3.32793 8.03114 3.44483C7.9243 3.54414 7.82061 3.64707 7.7164 3.74948C7.61324 3.85138 7.51113 3.95431 7.41113 4.05983C7.31324 4.16276 7.21482 4.26466 7.11955 4.37017C7.03587 4.46328 6.95587 4.55948 6.87429 4.65517H5.13637C5.70164 4.07741 6.31165 3.55655 6.96376 3.10345ZM4.64426 24.8276H6.4506C6.51007 24.9041 6.56902 24.9812 6.63007 25.0562C6.78902 25.2522 6.95218 25.4436 7.12008 25.6298C7.21534 25.7359 7.31376 25.8378 7.41166 25.9402C7.51219 26.0452 7.61377 26.1486 7.71693 26.2505C7.75956 26.2929 7.80061 26.3379 7.84377 26.3793H6.26059C5.68269 25.9143 5.14216 25.395 4.64426 24.8276ZM11.1859 28.7374C9.97906 28.4876 8.83852 28.0293 7.78061 27.4138H9.05378C9.11957 27.4634 9.18694 27.5105 9.25326 27.5591C9.36537 27.6409 9.47642 27.7231 9.59063 27.8012C9.79537 27.9414 10.0038 28.0759 10.2154 28.2036C10.3138 28.2631 10.4138 28.3179 10.5133 28.3743C10.677 28.4674 10.8422 28.5569 11.0096 28.6422C11.0696 28.6728 11.1264 28.7079 11.1859 28.7374ZM16.5791 28.9655C16.1612 28.9655 15.7481 28.9412 15.3402 28.8952L15.1312 28.8662C15.1054 28.8626 15.0796 28.859 15.0538 28.8553C14.8707 28.83 14.6891 28.8 14.5086 28.7659C14.4954 28.7633 14.4828 28.7607 14.4702 28.7581C14.2938 28.724 14.1191 28.6862 13.9459 28.6438C13.9228 28.6381 13.9002 28.6319 13.8775 28.6257C13.7149 28.5848 13.5533 28.5414 13.3933 28.4933C13.3501 28.4803 13.308 28.4653 13.2654 28.4519C13.1259 28.4084 12.987 28.364 12.8501 28.3148C12.7528 28.2802 12.657 28.2414 12.5612 28.2041C12.4791 28.1726 12.3965 28.1426 12.3154 28.109C9.48589 26.9317 7.13955 24.6186 5.71217 21.6621C5.69954 21.6352 5.68743 21.6083 5.6748 21.5814C5.59796 21.42 5.52322 21.2566 5.45216 21.091C5.42427 21.0264 5.39848 20.9607 5.37164 20.8955C5.31795 20.7662 5.26532 20.6364 5.21532 20.505C5.18374 20.4217 5.15374 20.3374 5.12321 20.2531C5.08163 20.1378 5.04058 20.0219 5.00111 19.9045C4.96953 19.8098 4.93953 19.7147 4.91005 19.619C4.87584 19.5093 4.84268 19.3991 4.81058 19.2879C4.78163 19.1871 4.75426 19.0857 4.72742 18.9843C4.69847 18.8757 4.6711 18.766 4.64479 18.6559C4.61952 18.5519 4.59531 18.4474 4.57268 18.3419C4.54847 18.2317 4.52637 18.1205 4.50479 18.0093C4.48426 17.9038 4.46373 17.7978 4.44479 17.6917C4.42479 17.5769 4.40742 17.461 4.39005 17.3447C4.37426 17.2407 4.35847 17.1372 4.34478 17.0322C4.32847 16.9081 4.31584 16.7824 4.30268 16.6572C4.29215 16.5595 4.28057 16.4622 4.27215 16.364C4.25952 16.2202 4.2511 16.0753 4.24268 15.93C4.23794 15.8483 4.2311 15.7676 4.22741 15.6859C4.21636 15.4598 4.21057 15.2307 4.21057 15C4.21057 14.7693 4.21636 14.5402 4.22584 14.3121C4.22952 14.2303 4.23636 14.1491 4.2411 14.0679C4.24952 13.9231 4.25794 13.7778 4.27057 13.634C4.27899 13.5357 4.29057 13.4384 4.3011 13.3407C4.31426 13.2155 4.32742 13.0898 4.3432 12.9657C4.35689 12.8612 4.37321 12.7572 4.38847 12.6533C4.40584 12.5374 4.42373 12.4216 4.44321 12.3062C4.46163 12.1997 4.48215 12.0941 4.50321 11.9886C4.52479 11.8774 4.54689 11.7662 4.5711 11.656C4.59426 11.551 4.61847 11.4466 4.64321 11.3421C4.66952 11.2319 4.69742 11.1228 4.72584 11.0136C4.75268 10.9117 4.78005 10.8109 4.809 10.71C4.84058 10.5988 4.87426 10.4886 4.90847 10.379C4.939 10.2848 4.96848 10.1891 5.00005 10.095C5.039 9.9781 5.08006 9.86224 5.12216 9.74638C5.15269 9.66207 5.18216 9.57776 5.21427 9.49448C5.26427 9.3631 5.31743 9.23328 5.37058 9.10396C5.39743 9.03879 5.42322 8.9731 5.45111 8.90845C5.52217 8.74293 5.5969 8.58 5.67375 8.4181C5.68638 8.39121 5.69848 8.36379 5.71111 8.33741C7.1385 5.38034 9.48537 3.06724 12.3143 1.89052C12.3954 1.8569 12.478 1.82741 12.5601 1.79534C12.6565 1.7581 12.7522 1.71931 12.8491 1.68466C12.9865 1.63603 13.1254 1.59103 13.2644 1.54759C13.307 1.53414 13.3496 1.51914 13.3923 1.50621C13.5523 1.4581 13.7138 1.41466 13.8765 1.37379C13.8996 1.3681 13.9223 1.36138 13.9449 1.35569C14.118 1.31328 14.2928 1.27552 14.4691 1.24138C14.4823 1.23879 14.4949 1.23621 14.5075 1.23362C14.6881 1.19948 14.8696 1.16948 15.0528 1.14414C15.0786 1.14052 15.1044 1.13638 15.1302 1.13328L15.3391 1.10431C15.7481 1.05879 16.1612 1.03448 16.5791 1.03448C23.3992 1.03448 28.9477 7.29931 28.9477 15C28.9477 22.7007 23.3992 28.9655 16.5791 28.9655Z" fill="black"/>
<path d="M16.5789 4.38409C16.8979 4.38409 17.2205 4.40271 17.5358 4.4384C17.5568 4.44099 17.5773 4.44202 17.5973 4.44202C17.861 4.44202 18.0884 4.24806 18.1195 3.98478C18.1531 3.70133 17.9463 3.44426 17.6579 3.41116C17.3037 3.3703 16.9431 3.34961 16.5694 3.34961C16.5673 3.34961 16.5652 3.34961 16.5631 3.34961L16.5563 3.86685V3.34961C16.2652 3.34961 16.041 3.58082 16.041 3.86685C16.0415 4.15289 16.2879 4.38409 16.5789 4.38409Z" fill="black"/>
<path d="M20.3402 5.27181C20.6307 5.4156 20.9176 5.57801 21.1929 5.75439C21.2813 5.81129 21.3808 5.8387 21.4797 5.8387C21.6513 5.8387 21.8197 5.75594 21.9213 5.60387C22.0802 5.36491 22.0113 5.04422 21.7676 4.88801C21.4597 4.69043 21.1392 4.50888 20.8139 4.34801C20.5534 4.21922 20.2376 4.32215 20.1071 4.57715C19.9765 4.83215 20.0807 5.14301 20.3402 5.27181Z" fill="black"/>
<path d="M25.5969 12.0477C25.6564 12.2825 25.8711 12.4392 26.1069 12.4392C26.1496 12.4392 26.1922 12.4341 26.2353 12.4237C26.5175 12.3544 26.6885 12.0735 26.618 11.7963C26.5301 11.4523 26.4264 11.1073 26.309 10.7711C26.2143 10.5011 25.9153 10.3568 25.6401 10.4499C25.3653 10.5425 25.2185 10.8368 25.3127 11.1073C25.4206 11.4151 25.5159 11.7316 25.5969 12.0477Z" fill="black"/>
<path d="M23.4325 22.2512C23.2236 22.5036 23.0009 22.7477 22.7699 22.9774C22.5657 23.1807 22.5678 23.5081 22.7752 23.7088C22.8773 23.8081 23.0109 23.8582 23.1446 23.8582C23.2804 23.8582 23.4162 23.807 23.5194 23.7046C23.7731 23.4517 24.0183 23.1827 24.2489 22.905C24.4325 22.6831 24.3983 22.3572 24.1725 22.1772C23.9467 21.9972 23.6157 22.0298 23.4325 22.2512Z" fill="black"/>
<path d="M24.8579 7.90129C24.6543 7.60594 24.4342 7.31681 24.2042 7.04163C24.019 6.82129 23.6885 6.78922 23.4632 6.97077C23.239 7.15232 23.2069 7.47819 23.3911 7.69905C23.6006 7.94939 23.8011 8.21267 23.9863 8.48164C24.0879 8.62957 24.2542 8.7087 24.4227 8.7087C24.5242 8.7087 24.6269 8.67974 24.7174 8.61974C24.9579 8.45939 25.0211 8.13767 24.8579 7.90129Z" fill="black"/>
<path d="M20.397 24.7004C20.1049 24.8478 19.8028 24.9797 19.4991 25.0919C19.227 25.1923 19.0896 25.4907 19.1922 25.7581C19.2712 25.9656 19.4717 26.0933 19.6849 26.0933C19.7464 26.0933 19.8091 26.0825 19.8707 26.0597C20.2117 25.9335 20.5512 25.7856 20.8786 25.6206C21.137 25.4902 21.2391 25.1783 21.1065 24.9244C20.9738 24.6704 20.6565 24.569 20.397 24.7004Z" fill="black"/>
<path d="M16.5791 25.6159C16.2522 25.6159 15.9227 25.5967 15.6017 25.559C15.3048 25.53 15.0506 25.7281 15.0164 26.0115C14.9822 26.295 15.188 26.5526 15.4764 26.5867C15.8396 26.6291 16.2112 26.6509 16.5796 26.6509H16.6243C16.9154 26.6509 17.128 26.4191 17.128 26.1336C17.128 25.8481 16.8701 25.6159 16.5791 25.6159Z" fill="black"/>
<path d="M26.0009 18.508C25.7262 18.4154 25.4267 18.5623 25.3341 18.8328C25.2278 19.1421 25.1067 19.4499 24.9746 19.7483C24.8583 20.01 24.9809 20.3152 25.2472 20.429C25.3157 20.4585 25.3873 20.4719 25.4567 20.4719C25.6604 20.4719 25.8536 20.3556 25.9399 20.1611C26.0836 19.8357 26.2152 19.5 26.3309 19.1628C26.4246 18.8928 26.2767 18.5995 26.0009 18.508Z" fill="black"/>
<path d="M26.4915 14.4663C26.2005 14.4663 25.9652 14.7146 25.9652 15.0001C25.9652 15.3192 25.9531 15.6394 25.9284 15.9513C25.9057 16.2363 26.1226 16.4851 26.4126 16.5068C26.4263 16.5079 26.4405 16.5084 26.4536 16.5084C26.7263 16.5084 26.9563 16.3025 26.9779 16.031C27.0047 15.6927 27.0179 15.3456 27.0179 15.0001V14.967C27.0179 14.681 26.7826 14.4663 26.4915 14.4663Z" fill="black"/>
<path d="M7.19327 14.9998C7.19327 14.6776 7.20643 14.3502 7.23222 14.0274C7.25485 13.7424 7.03853 13.4936 6.74853 13.4709C6.46379 13.4523 6.20589 13.6612 6.18273 13.9457C6.15484 14.2954 6.14062 14.6502 6.14062 14.9993V15.0102C6.14062 15.2957 6.37589 15.5217 6.66695 15.5217C6.958 15.5217 7.19327 15.2854 7.19327 14.9998Z" fill="black"/>
<path d="M7.55481 17.9317C7.48428 17.6544 7.19796 17.4853 6.9169 17.5546C6.63479 17.6234 6.46321 17.9043 6.53321 18.1815C6.62058 18.526 6.72427 18.871 6.84111 19.2072C6.91585 19.4224 7.12006 19.5574 7.33901 19.5574C7.39533 19.5574 7.4527 19.548 7.50902 19.5294C7.78376 19.4368 7.93113 19.143 7.83691 18.8725C7.73007 18.5648 7.63533 18.2482 7.55481 17.9317Z" fill="black"/>
<path d="M12.5417 5.34664C12.6217 5.34664 12.7038 5.32853 12.7801 5.29026C13.0738 5.14336 13.3764 5.01198 13.6796 4.90078C13.9517 4.80095 14.0896 4.5025 13.988 4.23509C13.8864 3.96715 13.5843 3.83112 13.3106 3.93198C12.9706 4.05715 12.6311 4.20405 12.3022 4.36905C12.0432 4.49836 11.9401 4.81026 12.0722 5.06474C12.1653 5.24371 12.3501 5.34664 12.5417 5.34664Z" fill="black"/>
<path d="M7.92041 9.55098C7.65251 9.43409 7.34356 9.55512 7.22724 9.81685C7.08303 10.1406 6.9504 10.4763 6.83355 10.8146C6.74039 11.0851 6.88829 11.3789 7.16303 11.471C7.21882 11.4896 7.27619 11.4984 7.33198 11.4984C7.55146 11.4984 7.75619 11.3624 7.83041 11.1472C7.93725 10.8368 8.05883 10.5291 8.19146 10.2327C8.30778 9.97098 8.18673 9.66581 7.92041 9.55098Z" fill="black"/>
<path d="M12.7992 24.7196C12.5087 24.5748 12.2219 24.4113 11.9477 24.2344C11.7045 24.0777 11.3787 24.1454 11.2187 24.3839C11.0598 24.6229 11.1277 24.9435 11.3708 25.0998C11.6777 25.2973 11.9977 25.4794 12.3235 25.6418C12.3998 25.6801 12.4808 25.6977 12.5608 25.6977C12.7529 25.6977 12.9382 25.5942 13.0308 25.4148C13.1624 25.1603 13.0593 24.8489 12.7992 24.7196Z" fill="black"/>
<path d="M9.15866 21.5C8.9955 21.2631 8.66866 21.2011 8.4276 21.3609C8.18707 21.5212 8.12392 21.8424 8.28655 22.0793C8.49287 22.3788 8.71182 22.6685 8.93813 22.94C9.04235 23.0647 9.19287 23.1293 9.34551 23.1293C9.46288 23.1293 9.58077 23.0911 9.67867 23.0119C9.90393 22.8304 9.93604 22.505 9.75235 22.2837C9.54709 22.0369 9.34709 21.7731 9.15866 21.5Z" fill="black"/>
<path d="M9.65514 6.27944C9.40146 6.53082 9.15514 6.79979 8.92356 7.07806C8.73934 7.29944 8.77303 7.6253 8.99829 7.80582C9.09619 7.88444 9.21409 7.92272 9.33093 7.92272C9.48356 7.92272 9.63514 7.85806 9.73883 7.73289C9.94883 7.47996 10.172 7.23634 10.4025 7.00823C10.6073 6.80548 10.6062 6.47806 10.3994 6.27686C10.193 6.07565 9.85988 6.07617 9.65514 6.27944Z" fill="black"/>
<path d="M20.2114 14.009C21.0351 13.4365 21.4519 12.598 21.4519 11.5102C21.4519 10.587 21.1329 9.80438 20.5029 9.18576C19.8729 8.56714 19.0477 8.25317 18.0503 8.25317H12.7329C12.4144 8.25317 12.2081 8.45593 12.2081 8.76886C12.2081 9.08179 12.4139 9.28455 12.7329 9.28455L13.9518 9.283L13.9529 16.7882H12.3681C12.0786 16.7882 11.8418 17.0209 11.8418 17.3054C11.8418 17.5899 12.0786 17.8227 12.3681 17.8227H13.9529V19.7328H12.7323C12.4139 19.7328 12.2076 19.9356 12.2076 20.2485C12.2076 20.5615 12.4134 20.7642 12.7323 20.7642H18.7477C19.874 20.7642 20.7619 20.444 21.3861 19.812C22.0082 19.182 22.3235 18.3663 22.3235 17.3871C22.3235 15.6275 21.614 14.4942 20.2114 14.009ZM14.9997 9.28507H18.0503C18.7861 9.28507 19.3498 9.48731 19.7735 9.90266C20.1966 10.319 20.4024 10.8337 20.4024 11.4761C20.4024 12.1206 20.1929 12.6477 19.7614 13.0873C19.3329 13.5244 18.8013 13.7365 18.1377 13.7365L15.0008 13.738L14.9997 9.28766C14.9997 9.28766 14.9776 9.28507 14.9997 9.28507ZM20.6103 19.0811C20.1635 19.5202 19.5545 19.7333 18.7477 19.7333L15.0008 19.7354L15.0003 17.8232H17.105C17.3945 17.8232 17.6313 17.5904 17.6313 17.3059C17.6313 17.0215 17.3945 16.7887 17.105 16.7887H15.0003L14.9997 14.7709C14.9997 14.7709 14.9771 14.7678 14.9992 14.7678H18.7477C19.5545 14.7678 20.1635 14.9809 20.6103 15.4201C21.0572 15.8597 21.274 16.4582 21.274 17.2506C21.274 18.043 21.0572 18.642 20.6103 19.0811Z" fill="black"/>
</svg>
