<svg width="352" height="4" viewBox="0 0 352 4" fill="none" xmlns="http://www.w3.org/2000/svg">
<circle cx="2" cy="2" r="2" fill="black" fill-opacity="0.5"/>
<circle cx="14" cy="2" r="2" fill="black" fill-opacity="0.5"/>
<circle cx="26" cy="2" r="2" fill="black" fill-opacity="0.5"/>
<circle cx="38" cy="2" r="2" fill="black" fill-opacity="0.5"/>
<circle cx="50" cy="2" r="2" fill="black" fill-opacity="0.5"/>
<circle cx="62" cy="2" r="2" fill="black" fill-opacity="0.5"/>
<circle cx="74" cy="2" r="2" fill="black" fill-opacity="0.5"/>
<circle cx="86" cy="2" r="2" fill="black" fill-opacity="0.5"/>
<circle cx="98" cy="2" r="2" fill="black" fill-opacity="0.5"/>
<circle cx="110" cy="2" r="2" fill="black" fill-opacity="0.5"/>
<circle cx="122" cy="2" r="2" fill="black" fill-opacity="0.5"/>
<circle cx="134" cy="2" r="2" fill="black" fill-opacity="0.5"/>
<circle cx="146" cy="2" r="2" fill="black" fill-opacity="0.5"/>
<circle cx="158" cy="2" r="2" fill="black" fill-opacity="0.5"/>
<circle cx="170" cy="2" r="2" fill="black" fill-opacity="0.5"/>
<circle cx="182" cy="2" r="2" fill="black" fill-opacity="0.5"/>
<circle cx="194" cy="2" r="2" fill="black" fill-opacity="0.5"/>
<circle cx="206" cy="2" r="2" fill="black" fill-opacity="0.5"/>
<circle cx="218" cy="2" r="2" fill="black" fill-opacity="0.5"/>
<circle cx="230" cy="2" r="2" fill="black" fill-opacity="0.5"/>
<circle cx="242" cy="2" r="2" fill="black" fill-opacity="0.5"/>
<circle cx="254" cy="2" r="2" fill="black" fill-opacity="0.5"/>
<circle cx="266" cy="2" r="2" fill="black" fill-opacity="0.5"/>
<circle cx="278" cy="2" r="2" fill="black" fill-opacity="0.5"/>
<circle cx="290" cy="2" r="2" fill="black" fill-opacity="0.5"/>
<circle cx="302" cy="2" r="2" fill="black" fill-opacity="0.5"/>
<circle cx="314" cy="2" r="2" fill="black" fill-opacity="0.5"/>
<circle cx="326" cy="2" r="2" fill="black" fill-opacity="0.5"/>
<circle cx="338" cy="2" r="2" fill="black" fill-opacity="0.5"/>
<circle cx="350" cy="2" r="2" fill="black" fill-opacity="0.5"/>
</svg>
