<svg width="30" height="22" viewBox="0 0 30 22" fill="none" xmlns="http://www.w3.org/2000/svg">
<path d="M10.5081 10.3426L10.0996 9.80239L0.664311 17.3896V1.50942L12.8053 10.4929C13.2072 10.7903 13.6782 10.939 14.1492 10.939C14.6201 10.939 15.0911 10.7902 15.493 10.4929L20.3783 6.87799L19.991 6.32142L15.1057 9.93638C14.5335 10.3598 13.7647 10.3598 13.1926 9.93638L1.36529 1.185H26.9327L22.6597 4.34683L23.047 4.9034L27.6337 1.50942V10.8592H28.298V0.5H0V18.4336H18.7564V17.7486H1.29826L10.5081 10.3426Z" fill="black"/>
<path d="M21.8093 4.97532L20.8828 5.66089L21.2701 6.21732L22.1965 5.53175L21.8093 4.97532Z" fill="black"/>
<path d="M19.8672 18.4878C19.9945 18.7443 20.1426 18.9926 20.3076 19.2259L20.8444 18.8224C20.6999 18.618 20.5701 18.4004 20.4586 18.1758L19.8672 18.4878Z" fill="black"/>
<path d="M22.5029 11.6628L22.1999 11.0532C21.9513 11.1846 21.7104 11.3375 21.4844 11.5077L21.876 12.061C22.0741 11.9118 22.2851 11.7779 22.5029 11.6628Z" fill="black"/>
<path d="M27.9609 19.3964L28.4307 19.8807C28.6286 19.6767 28.8123 19.455 28.9768 19.2219L28.4396 18.8188C28.2954 19.0233 28.1344 19.2177 27.9609 19.3964Z" fill="black"/>
<path d="M28.8252 18.1715L29.4168 18.483C29.5442 18.2256 29.6526 17.956 29.739 17.6814L29.1071 17.47C29.0316 17.7103 28.9367 17.9463 28.8252 18.1715Z" fill="black"/>
<path d="M19.9465 15.974C19.9465 15.7218 19.9655 15.4688 20.0029 15.2218L19.3465 15.1162C19.3037 15.3981 19.2822 15.6867 19.2822 15.9784L19.3868 15.9788L19.9465 15.974Z" fill="black"/>
<path d="M20.0048 16.7368L19.3486 16.844C19.3923 17.1293 19.4585 17.413 19.5451 17.6871L20.1768 17.4749C20.101 17.235 20.0431 16.9867 20.0048 16.7368Z" fill="black"/>
<path d="M26.7744 20.2876L27.0767 20.8975C27.3257 20.7663 27.5665 20.6137 27.7927 20.4439L27.4017 19.8901C27.2035 20.0389 26.9925 20.1727 26.7744 20.2876Z" fill="black"/>
<path d="M29.412 13.4552C29.2846 13.1989 29.1362 12.9507 28.9709 12.7175L28.4346 13.1216C28.5793 13.3259 28.7093 13.5433 28.821 13.7678L29.412 13.4552Z" fill="black"/>
<path d="M29.3354 15.9629V15.9741C29.3354 16.2279 29.3162 16.4828 29.2783 16.7315L29.9346 16.8379C29.9778 16.554 29.9997 16.2635 29.9997 15.9742V15.963H29.3354V15.9629Z" fill="black"/>
<path d="M29.2763 15.2063L29.9324 15.0986C29.8883 14.8133 29.8218 14.5297 29.7349 14.2556L29.1035 14.4685C29.1796 14.7084 29.2377 14.9566 29.2763 15.2063Z" fill="black"/>
<path d="M22.2109 20.9001C22.4606 21.0313 22.7221 21.143 22.9884 21.2319L23.1932 20.5802C22.9601 20.5024 22.7311 20.4047 22.5126 20.2898L22.2109 20.9001Z" fill="black"/>
<path d="M26.7648 11.6562L27.0658 11.0455C26.816 10.9146 26.5543 10.8032 26.2879 10.7146L26.084 11.3665C26.317 11.4441 26.5461 11.5416 26.7648 11.6562Z" fill="black"/>
<path d="M25.3779 20.7554L25.4814 21.432C25.7582 21.387 26.0333 21.3191 26.2993 21.2298L26.0939 20.5784C25.861 20.6565 25.6202 20.7159 25.3779 20.7554Z" fill="black"/>
<path d="M20.8545 19.8844C21.0525 20.0883 21.2677 20.2776 21.4938 20.4471L21.8843 19.8929C21.6861 19.7444 21.4975 19.5784 21.3238 19.3997L20.8545 19.8844Z" fill="black"/>
<path d="M24.6328 10.4485V11.1335L24.641 11.1334C24.8847 11.1334 25.1294 11.1528 25.3681 11.1911L25.47 10.5142C25.1978 10.4706 24.919 10.4486 24.6375 10.4486C24.6373 10.4486 24.6371 10.4486 24.637 10.4486H24.6328V10.4485Z" fill="black"/>
<path d="M27.3936 12.0521C27.592 12.2005 27.7807 12.3663 27.9544 12.5447L28.4234 12.0596C28.2252 11.8559 28.0098 11.6668 27.7834 11.4976L27.3936 12.0521Z" fill="black"/>
<path d="M19.541 14.2726L20.1731 14.4833C20.2485 14.243 20.3431 14.0068 20.4544 13.7814L19.8623 13.4707C19.7353 13.7282 19.6271 13.998 19.541 14.2726Z" fill="black"/>
<path d="M23.1828 11.3713C23.4153 11.293 23.6562 11.2332 23.8984 11.1935L23.7942 10.5171C23.5175 10.5624 23.2424 10.6307 22.9766 10.7202L23.1828 11.3713Z" fill="black"/>
<path d="M21.3175 12.5555L20.8472 12.0718C20.6495 12.276 20.466 12.4981 20.3018 12.7312L20.8394 13.1337C20.9833 12.9293 21.1441 12.7347 21.3175 12.5555Z" fill="black"/>
<path d="M23.9094 20.7563L23.8066 21.4331C24.0808 21.4774 24.3617 21.4998 24.6414 21.4998H24.6441L24.6414 20.8148C24.396 20.8148 24.1498 20.7951 23.9094 20.7563Z" fill="black"/>
<path d="M28.5211 15.9895C28.5211 13.7833 26.7805 11.9885 24.6409 11.9885C22.5014 11.9885 20.7607 13.7833 20.7607 15.9895C20.7607 16.2142 20.7789 16.4397 20.815 16.6598L21.47 16.5458C21.4401 16.3633 21.425 16.1761 21.425 15.9895C21.425 14.2623 22.7125 12.84 24.3497 12.6877V13.632H24.3351C23.6011 13.632 23.0039 14.2378 23.0039 14.9823C23.0039 15.7269 23.6011 16.3327 24.3351 16.3327H24.3497V17.7521H23.0094V18.4371H24.3497V19.2915C23.0987 19.1747 22.015 18.3124 21.6 17.0715L20.972 17.2949C21.5113 18.9073 22.9858 19.9907 24.6409 19.9907C26.7805 19.9906 28.5211 18.1957 28.5211 15.9895ZM27.8568 15.9895C27.8568 17.6878 26.6121 19.0911 25.0141 19.2825V18.437H25.0202C25.7785 18.437 26.3954 17.8112 26.3954 17.0423C26.3954 16.2733 25.7785 15.6477 25.0202 15.6477H25.0141V14.317H26.302V13.632H25.0141V12.6965C26.6121 12.8879 27.8568 14.2913 27.8568 15.9895ZM25.0141 16.3327H25.0202C25.4121 16.3327 25.7311 16.6509 25.7311 17.0423C25.7311 17.4336 25.4121 17.752 25.0202 17.752H25.0141V16.3327ZM24.3352 15.6477C23.9675 15.6477 23.6683 15.3492 23.6683 14.9823C23.6683 14.6154 23.9675 14.317 24.3352 14.317H24.3497V15.6477H24.3352Z" fill="black"/>
<path d="M17.394 15.6919H10.9053V16.3769H17.394V15.6919Z" fill="black"/>
</svg>
